<?xml version="1.0" encoding="utf-8" standalone="no"?>
<!DOCTYPE svg PUBLIC "-//W3C//DTD SVG 1.1//EN"
  "http://www.w3.org/Graphics/SVG/1.1/DTD/svg11.dtd">
<svg xmlns:xlink="http://www.w3.org/1999/xlink" width="1080pt" height="720pt" viewBox="0 0 1080 720" xmlns="http://www.w3.org/2000/svg" version="1.1">
 <metadata>
  <rdf:RDF xmlns:dc="http://purl.org/dc/elements/1.1/" xmlns:cc="http://creativecommons.org/ns#" xmlns:rdf="http://www.w3.org/1999/02/22-rdf-syntax-ns#">
   <cc:Work>
    <dc:type rdf:resource="http://purl.org/dc/dcmitype/StillImage"/>
    <dc:date>2023-05-20T23:05:32.936991</dc:date>
    <dc:format>image/svg+xml</dc:format>
    <dc:creator>
     <cc:Agent>
      <dc:title>Matplotlib v3.6.2, https://matplotlib.org/</dc:title>
     </cc:Agent>
    </dc:creator>
   </cc:Work>
  </rdf:RDF>
 </metadata>
 <defs>
  <style type="text/css">*{stroke-linejoin: round; stroke-linecap: butt}</style>
 </defs>
 <g id="figure_1">
  <g id="patch_1">
   <path d="M 0 720 
L 1080 720 
L 1080 0 
L 0 0 
z
" style="fill: #ffffff"/>
  </g>
  <g id="axes_1">
   <g id="patch_2">
    <path d="M 135 640.8 
L 972 640.8 
L 972 86.4 
L 135 86.4 
z
" style="fill: #ffffff"/>
   </g>
   <g id="PathCollection_1">
    <defs>
     <path id="me4999c97de" d="M 0 3.535534 
C 0.937635 3.535534 1.836992 3.163008 2.5 2.5 
C 3.163008 1.836992 3.535534 0.937635 3.535534 0 
C 3.535534 -0.937635 3.163008 -1.836992 2.5 -2.5 
C 1.836992 -3.163008 0.937635 -3.535534 0 -3.535534 
C -0.937635 -3.535534 -1.836992 -3.163008 -2.5 -2.5 
C -3.163008 -1.836992 -3.535534 -0.937635 -3.535534 0 
C -3.535534 0.937635 -3.163008 1.836992 -2.5 2.5 
C -1.836992 3.163008 -0.937635 3.535534 0 3.535534 
z
" style="stroke: #ff0000"/>
    </defs>
    <g clip-path="url(#pfbde2e189a)">
     <use xlink:href="#me4999c97de" x="173.045455" y="167.59495" style="fill: #ff0000; stroke: #ff0000"/>
     <use xlink:href="#me4999c97de" x="184.235294" y="196.282527" style="fill: #ff0000; stroke: #ff0000"/>
     <use xlink:href="#me4999c97de" x="195.425134" y="222.876993" style="fill: #ff0000; stroke: #ff0000"/>
     <use xlink:href="#me4999c97de" x="206.614973" y="247.526317" style="fill: #ff0000; stroke: #ff0000"/>
     <use xlink:href="#me4999c97de" x="217.804813" y="270.366798" style="fill: #ff0000; stroke: #ff0000"/>
     <use xlink:href="#me4999c97de" x="228.994652" y="291.523862" style="fill: #ff0000; stroke: #ff0000"/>
     <use xlink:href="#me4999c97de" x="240.184492" y="311.112785" style="fill: #ff0000; stroke: #ff0000"/>
     <use xlink:href="#me4999c97de" x="251.374332" y="329.239366" style="fill: #ff0000; stroke: #ff0000"/>
     <use xlink:href="#me4999c97de" x="262.564171" y="346.000527" style="fill: #ff0000; stroke: #ff0000"/>
     <use xlink:href="#me4999c97de" x="273.754011" y="361.484874" style="fill: #ff0000; stroke: #ff0000"/>
     <use xlink:href="#me4999c97de" x="284.94385" y="375.773194" style="fill: #ff0000; stroke: #ff0000"/>
     <use xlink:href="#me4999c97de" x="296.13369" y="388.938911" style="fill: #ff0000; stroke: #ff0000"/>
     <use xlink:href="#me4999c97de" x="307.323529" y="401.048493" style="fill: #ff0000; stroke: #ff0000"/>
     <use xlink:href="#me4999c97de" x="318.513369" y="412.161816" style="fill: #ff0000; stroke: #ff0000"/>
     <use xlink:href="#me4999c97de" x="329.703209" y="422.332485" style="fill: #ff0000; stroke: #ff0000"/>
     <use xlink:href="#me4999c97de" x="340.893048" y="431.608115" style="fill: #ff0000; stroke: #ff0000"/>
     <use xlink:href="#me4999c97de" x="352.082888" y="440.030573" style="fill: #ff0000; stroke: #ff0000"/>
     <use xlink:href="#me4999c97de" x="363.272727" y="447.636182" style="fill: #ff0000; stroke: #ff0000"/>
     <use xlink:href="#me4999c97de" x="374.462567" y="454.455886" style="fill: #ff0000; stroke: #ff0000"/>
     <use xlink:href="#me4999c97de" x="385.652406" y="460.51538" style="fill: #ff0000; stroke: #ff0000"/>
     <use xlink:href="#me4999c97de" x="396.842246" y="465.835206" style="fill: #ff0000; stroke: #ff0000"/>
     <use xlink:href="#me4999c97de" x="408.032086" y="470.430805" style="fill: #ff0000; stroke: #ff0000"/>
     <use xlink:href="#me4999c97de" x="419.221925" y="474.31254" style="fill: #ff0000; stroke: #ff0000"/>
     <use xlink:href="#me4999c97de" x="430.411765" y="477.485678" style="fill: #ff0000; stroke: #ff0000"/>
     <use xlink:href="#me4999c97de" x="441.601604" y="479.950336" style="fill: #ff0000; stroke: #ff0000"/>
     <use xlink:href="#me4999c97de" x="452.791444" y="481.701384" style="fill: #ff0000; stroke: #ff0000"/>
     <use xlink:href="#me4999c97de" x="463.981283" y="482.72831" style="fill: #ff0000; stroke: #ff0000"/>
     <use xlink:href="#me4999c97de" x="475.171123" y="483.015045" style="fill: #ff0000; stroke: #ff0000"/>
     <use xlink:href="#me4999c97de" x="486.360963" y="482.539739" style="fill: #ff0000; stroke: #ff0000"/>
     <use xlink:href="#me4999c97de" x="497.550802" y="481.274493" style="fill: #ff0000; stroke: #ff0000"/>
     <use xlink:href="#me4999c97de" x="508.740642" y="479.18504" style="fill: #ff0000; stroke: #ff0000"/>
     <use xlink:href="#me4999c97de" x="519.930481" y="476.230372" style="fill: #ff0000; stroke: #ff0000"/>
     <use xlink:href="#me4999c97de" x="531.120321" y="472.362313" style="fill: #ff0000; stroke: #ff0000"/>
     <use xlink:href="#me4999c97de" x="542.31016" y="467.525031" style="fill: #ff0000; stroke: #ff0000"/>
     <use xlink:href="#me4999c97de" x="553.5" y="461.654477" style="fill: #ff0000; stroke: #ff0000"/>
     <use xlink:href="#me4999c97de" x="564.68984" y="454.677766" style="fill: #ff0000; stroke: #ff0000"/>
     <use xlink:href="#me4999c97de" x="575.879679" y="446.512466" style="fill: #ff0000; stroke: #ff0000"/>
     <use xlink:href="#me4999c97de" x="587.069519" y="437.065817" style="fill: #ff0000; stroke: #ff0000"/>
     <use xlink:href="#me4999c97de" x="598.259358" y="426.233848" style="fill: #ff0000; stroke: #ff0000"/>
     <use xlink:href="#me4999c97de" x="609.449198" y="413.900401" style="fill: #ff0000; stroke: #ff0000"/>
     <use xlink:href="#me4999c97de" x="620.639037" y="399.936047" style="fill: #ff0000; stroke: #ff0000"/>
     <use xlink:href="#me4999c97de" x="631.828877" y="384.196875" style="fill: #ff0000; stroke: #ff0000"/>
     <use xlink:href="#me4999c97de" x="643.018717" y="366.523167" style="fill: #ff0000; stroke: #ff0000"/>
     <use xlink:href="#me4999c97de" x="654.208556" y="346.737914" style="fill: #ff0000; stroke: #ff0000"/>
     <use xlink:href="#me4999c97de" x="665.398396" y="324.64519" style="fill: #ff0000; stroke: #ff0000"/>
     <use xlink:href="#me4999c97de" x="676.588235" y="300.028348" style="fill: #ff0000; stroke: #ff0000"/>
     <use xlink:href="#me4999c97de" x="687.778075" y="272.64803" style="fill: #ff0000; stroke: #ff0000"/>
     <use xlink:href="#me4999c97de" x="698.967914" y="242.239977" style="fill: #ff0000; stroke: #ff0000"/>
     <use xlink:href="#me4999c97de" x="710.157754" y="208.51261" style="fill: #ff0000; stroke: #ff0000"/>
     <use xlink:href="#me4999c97de" x="721.347594" y="171.144359" style="fill: #ff0000; stroke: #ff0000"/>
     <use xlink:href="#me4999c97de" x="732.537433" y="129.780733" style="fill: #ff0000; stroke: #ff0000"/>
     <use xlink:href="#me4999c97de" x="743.727273" y="84.031079" style="fill: #ff0000; stroke: #ff0000"/>
     <use xlink:href="#me4999c97de" x="754.917112" y="33.465022" style="fill: #ff0000; stroke: #ff0000"/>
     <use xlink:href="#me4999c97de" x="761.821558" y="-1" style="fill: #ff0000; stroke: #ff0000"/>
    </g>
   </g>
   <g id="PathCollection_2">
    <defs>
     <path id="m6ef86f50b1" d="M 0 3.535534 
C 0.937635 3.535534 1.836992 3.163008 2.5 2.5 
C 3.163008 1.836992 3.535534 0.937635 3.535534 0 
C 3.535534 -0.937635 3.163008 -1.836992 2.5 -2.5 
C 1.836992 -3.163008 0.937635 -3.535534 0 -3.535534 
C -0.937635 -3.535534 -1.836992 -3.163008 -2.5 -2.5 
C -3.163008 -1.836992 -3.535534 -0.937635 -3.535534 0 
C -3.535534 0.937635 -3.163008 1.836992 -2.5 2.5 
C -1.836992 3.163008 -0.937635 3.535534 0 3.535534 
z
" style="stroke: #008000"/>
    </defs>
    <g clip-path="url(#pfbde2e189a)">
     <use xlink:href="#m6ef86f50b1" x="173.045455" y="277.009887" style="fill: #008000; stroke: #008000"/>
     <use xlink:href="#m6ef86f50b1" x="184.235294" y="290.414844" style="fill: #008000; stroke: #008000"/>
     <use xlink:href="#m6ef86f50b1" x="195.425134" y="303.056935" style="fill: #008000; stroke: #008000"/>
     <use xlink:href="#m6ef86f50b1" x="206.614973" y="314.979339" style="fill: #008000; stroke: #008000"/>
     <use xlink:href="#m6ef86f50b1" x="217.804813" y="326.221743" style="fill: #008000; stroke: #008000"/>
     <use xlink:href="#m6ef86f50b1" x="228.994652" y="336.820494" style="fill: #008000; stroke: #008000"/>
     <use xlink:href="#m6ef86f50b1" x="240.184492" y="346.808748" style="fill: #008000; stroke: #008000"/>
     <use xlink:href="#m6ef86f50b1" x="251.374332" y="356.216599" style="fill: #008000; stroke: #008000"/>
     <use xlink:href="#m6ef86f50b1" x="262.564171" y="365.071185" style="fill: #008000; stroke: #008000"/>
     <use xlink:href="#m6ef86f50b1" x="273.754011" y="373.396788" style="fill: #008000; stroke: #008000"/>
     <use xlink:href="#m6ef86f50b1" x="284.94385" y="381.214907" style="fill: #008000; stroke: #008000"/>
     <use xlink:href="#m6ef86f50b1" x="296.13369" y="388.544326" style="fill: #008000; stroke: #008000"/>
     <use xlink:href="#m6ef86f50b1" x="307.323529" y="395.401158" style="fill: #008000; stroke: #008000"/>
     <use xlink:href="#m6ef86f50b1" x="318.513369" y="401.798876" style="fill: #008000; stroke: #008000"/>
     <use xlink:href="#m6ef86f50b1" x="329.703209" y="407.748328" style="fill: #008000; stroke: #008000"/>
     <use xlink:href="#m6ef86f50b1" x="340.893048" y="413.257733" style="fill: #008000; stroke: #008000"/>
     <use xlink:href="#m6ef86f50b1" x="352.082888" y="418.33266" style="fill: #008000; stroke: #008000"/>
     <use xlink:href="#m6ef86f50b1" x="363.272727" y="422.975994" style="fill: #008000; stroke: #008000"/>
     <use xlink:href="#m6ef86f50b1" x="374.462567" y="427.187878" style="fill: #008000; stroke: #008000"/>
     <use xlink:href="#m6ef86f50b1" x="385.652406" y="430.965632" style="fill: #008000; stroke: #008000"/>
     <use xlink:href="#m6ef86f50b1" x="396.842246" y="434.303667" style="fill: #008000; stroke: #008000"/>
     <use xlink:href="#m6ef86f50b1" x="408.032086" y="437.193356" style="fill: #008000; stroke: #008000"/>
     <use xlink:href="#m6ef86f50b1" x="419.221925" y="439.622898" style="fill: #008000; stroke: #008000"/>
     <use xlink:href="#m6ef86f50b1" x="430.411765" y="441.577153" style="fill: #008000; stroke: #008000"/>
     <use xlink:href="#m6ef86f50b1" x="441.601604" y="443.037443" style="fill: #008000; stroke: #008000"/>
     <use xlink:href="#m6ef86f50b1" x="452.791444" y="443.98134" style="fill: #008000; stroke: #008000"/>
     <use xlink:href="#m6ef86f50b1" x="463.981283" y="444.382404" style="fill: #008000; stroke: #008000"/>
     <use xlink:href="#m6ef86f50b1" x="475.171123" y="444.209905" style="fill: #008000; stroke: #008000"/>
     <use xlink:href="#m6ef86f50b1" x="486.360963" y="443.428499" style="fill: #008000; stroke: #008000"/>
     <use xlink:href="#m6ef86f50b1" x="497.550802" y="441.997868" style="fill: #008000; stroke: #008000"/>
     <use xlink:href="#m6ef86f50b1" x="508.740642" y="439.872315" style="fill: #008000; stroke: #008000"/>
     <use xlink:href="#m6ef86f50b1" x="519.930481" y="437.000315" style="fill: #008000; stroke: #008000"/>
     <use xlink:href="#m6ef86f50b1" x="531.120321" y="433.324018" style="fill: #008000; stroke: #008000"/>
     <use xlink:href="#m6ef86f50b1" x="542.31016" y="428.778688" style="fill: #008000; stroke: #008000"/>
     <use xlink:href="#m6ef86f50b1" x="553.5" y="423.292088" style="fill: #008000; stroke: #008000"/>
     <use xlink:href="#m6ef86f50b1" x="564.68984" y="416.783801" style="fill: #008000; stroke: #008000"/>
     <use xlink:href="#m6ef86f50b1" x="575.879679" y="409.164468" style="fill: #008000; stroke: #008000"/>
     <use xlink:href="#m6ef86f50b1" x="587.069519" y="400.334958" style="fill: #008000; stroke: #008000"/>
     <use xlink:href="#m6ef86f50b1" x="598.259358" y="390.185442" style="fill: #008000; stroke: #008000"/>
     <use xlink:href="#m6ef86f50b1" x="609.449198" y="378.594379" style="fill: #008000; stroke: #008000"/>
     <use xlink:href="#m6ef86f50b1" x="620.639037" y="365.427387" style="fill: #008000; stroke: #008000"/>
     <use xlink:href="#m6ef86f50b1" x="631.828877" y="350.536008" style="fill: #008000; stroke: #008000"/>
     <use xlink:href="#m6ef86f50b1" x="643.018717" y="333.756338" style="fill: #008000; stroke: #008000"/>
     <use xlink:href="#m6ef86f50b1" x="654.208556" y="314.907528" style="fill: #008000; stroke: #008000"/>
     <use xlink:href="#m6ef86f50b1" x="665.398396" y="293.790119" style="fill: #008000; stroke: #008000"/>
     <use xlink:href="#m6ef86f50b1" x="676.588235" y="270.18422" style="fill: #008000; stroke: #008000"/>
     <use xlink:href="#m6ef86f50b1" x="687.778075" y="243.847495" style="fill: #008000; stroke: #008000"/>
     <use xlink:href="#m6ef86f50b1" x="698.967914" y="214.512948" style="fill: #008000; stroke: #008000"/>
     <use xlink:href="#m6ef86f50b1" x="710.157754" y="181.886484" style="fill: #008000; stroke: #008000"/>
     <use xlink:href="#m6ef86f50b1" x="721.347594" y="145.644228" style="fill: #008000; stroke: #008000"/>
     <use xlink:href="#m6ef86f50b1" x="732.537433" y="105.429569" style="fill: #008000; stroke: #008000"/>
     <use xlink:href="#m6ef86f50b1" x="743.727273" y="60.849911" style="fill: #008000; stroke: #008000"/>
     <use xlink:href="#m6ef86f50b1" x="754.917112" y="11.473092" style="fill: #008000; stroke: #008000"/>
     <use xlink:href="#m6ef86f50b1" x="757.471052" y="-1" style="fill: #008000; stroke: #008000"/>
    </g>
   </g>
   <g id="PathCollection_3">
    <defs>
     <path id="mc737fab77b" d="M 0 3.535534 
C 0.937635 3.535534 1.836992 3.163008 2.5 2.5 
C 3.163008 1.836992 3.535534 0.937635 3.535534 0 
C 3.535534 -0.937635 3.163008 -1.836992 2.5 -2.5 
C 1.836992 -3.163008 0.937635 -3.535534 0 -3.535534 
C -0.937635 -3.535534 -1.836992 -3.163008 -2.5 -2.5 
C -3.163008 -1.836992 -3.535534 -0.937635 -3.535534 0 
C -3.535534 0.937635 -3.163008 1.836992 -2.5 2.5 
C -1.836992 3.163008 -0.937635 3.535534 0 3.535534 
z
" style="stroke: #0000ff"/>
    </defs>
    <g clip-path="url(#pfbde2e189a)">
     <use xlink:href="#mc737fab77b" x="173.045455" y="275.845647" style="fill: #0000ff; stroke: #0000ff"/>
     <use xlink:href="#mc737fab77b" x="184.235294" y="288.111497" style="fill: #0000ff; stroke: #0000ff"/>
     <use xlink:href="#mc737fab77b" x="195.425134" y="299.642363" style="fill: #0000ff; stroke: #0000ff"/>
     <use xlink:href="#mc737fab77b" x="206.614973" y="310.484469" style="fill: #0000ff; stroke: #0000ff"/>
     <use xlink:href="#mc737fab77b" x="217.804813" y="320.68087" style="fill: #0000ff; stroke: #0000ff"/>
     <use xlink:href="#mc737fab77b" x="228.994652" y="330.271639" style="fill: #0000ff; stroke: #0000ff"/>
     <use xlink:href="#mc737fab77b" x="240.184492" y="339.294059" style="fill: #0000ff; stroke: #0000ff"/>
     <use xlink:href="#mc737fab77b" x="251.374332" y="347.782784" style="fill: #0000ff; stroke: #0000ff"/>
     <use xlink:href="#mc737fab77b" x="262.564171" y="355.77" style="fill: #0000ff; stroke: #0000ff"/>
     <use xlink:href="#mc737fab77b" x="273.754011" y="363.285566" style="fill: #0000ff; stroke: #0000ff"/>
     <use xlink:href="#mc737fab77b" x="284.94385" y="370.357157" style="fill: #0000ff; stroke: #0000ff"/>
     <use xlink:href="#mc737fab77b" x="296.13369" y="377.010379" style="fill: #0000ff; stroke: #0000ff"/>
     <use xlink:href="#mc737fab77b" x="307.323529" y="383.268888" style="fill: #0000ff; stroke: #0000ff"/>
     <use xlink:href="#mc737fab77b" x="318.513369" y="389.154496" style="fill: #0000ff; stroke: #0000ff"/>
     <use xlink:href="#mc737fab77b" x="329.703209" y="394.687269" style="fill: #0000ff; stroke: #0000ff"/>
     <use xlink:href="#mc737fab77b" x="340.893048" y="399.885611" style="fill: #0000ff; stroke: #0000ff"/>
     <use xlink:href="#mc737fab77b" x="352.082888" y="404.766349" style="fill: #0000ff; stroke: #0000ff"/>
     <use xlink:href="#mc737fab77b" x="363.272727" y="409.344805" style="fill: #0000ff; stroke: #0000ff"/>
     <use xlink:href="#mc737fab77b" x="374.462567" y="413.634862" style="fill: #0000ff; stroke: #0000ff"/>
     <use xlink:href="#mc737fab77b" x="385.652406" y="417.649023" style="fill: #0000ff; stroke: #0000ff"/>
     <use xlink:href="#mc737fab77b" x="396.842246" y="421.398466" style="fill: #0000ff; stroke: #0000ff"/>
     <use xlink:href="#mc737fab77b" x="408.032086" y="424.893085" style="fill: #0000ff; stroke: #0000ff"/>
     <use xlink:href="#mc737fab77b" x="419.221925" y="428.141535" style="fill: #0000ff; stroke: #0000ff"/>
     <use xlink:href="#mc737fab77b" x="430.411765" y="431.151263" style="fill: #0000ff; stroke: #0000ff"/>
     <use xlink:href="#mc737fab77b" x="441.601604" y="433.928534" style="fill: #0000ff; stroke: #0000ff"/>
     <use xlink:href="#mc737fab77b" x="452.791444" y="436.478459" style="fill: #0000ff; stroke: #0000ff"/>
     <use xlink:href="#mc737fab77b" x="463.981283" y="438.805004" style="fill: #0000ff; stroke: #0000ff"/>
     <use xlink:href="#mc737fab77b" x="475.171123" y="440.911005" style="fill: #0000ff; stroke: #0000ff"/>
     <use xlink:href="#mc737fab77b" x="486.360963" y="442.798167" style="fill: #0000ff; stroke: #0000ff"/>
     <use xlink:href="#mc737fab77b" x="497.550802" y="444.467069" style="fill: #0000ff; stroke: #0000ff"/>
     <use xlink:href="#mc737fab77b" x="508.740642" y="445.917151" style="fill: #0000ff; stroke: #0000ff"/>
     <use xlink:href="#mc737fab77b" x="519.930481" y="447.146705" style="fill: #0000ff; stroke: #0000ff"/>
     <use xlink:href="#mc737fab77b" x="531.120321" y="448.152849" style="fill: #0000ff; stroke: #0000ff"/>
     <use xlink:href="#mc737fab77b" x="542.31016" y="448.931509" style="fill: #0000ff; stroke: #0000ff"/>
     <use xlink:href="#mc737fab77b" x="553.5" y="449.477379" style="fill: #0000ff; stroke: #0000ff"/>
     <use xlink:href="#mc737fab77b" x="564.68984" y="449.783887" style="fill: #0000ff; stroke: #0000ff"/>
     <use xlink:href="#mc737fab77b" x="575.879679" y="449.843146" style="fill: #0000ff; stroke: #0000ff"/>
     <use xlink:href="#mc737fab77b" x="587.069519" y="449.645902" style="fill: #0000ff; stroke: #0000ff"/>
     <use xlink:href="#mc737fab77b" x="598.259358" y="449.181471" style="fill: #0000ff; stroke: #0000ff"/>
     <use xlink:href="#mc737fab77b" x="609.449198" y="448.437672" style="fill: #0000ff; stroke: #0000ff"/>
     <use xlink:href="#mc737fab77b" x="620.639037" y="447.400748" style="fill: #0000ff; stroke: #0000ff"/>
     <use xlink:href="#mc737fab77b" x="631.828877" y="446.055278" style="fill: #0000ff; stroke: #0000ff"/>
     <use xlink:href="#mc737fab77b" x="643.018717" y="444.384082" style="fill: #0000ff; stroke: #0000ff"/>
     <use xlink:href="#mc737fab77b" x="654.208556" y="442.368117" style="fill: #0000ff; stroke: #0000ff"/>
     <use xlink:href="#mc737fab77b" x="665.398396" y="439.986356" style="fill: #0000ff; stroke: #0000ff"/>
     <use xlink:href="#mc737fab77b" x="676.588235" y="437.215661" style="fill: #0000ff; stroke: #0000ff"/>
     <use xlink:href="#mc737fab77b" x="687.778075" y="434.030642" style="fill: #0000ff; stroke: #0000ff"/>
     <use xlink:href="#mc737fab77b" x="698.967914" y="430.403504" style="fill: #0000ff; stroke: #0000ff"/>
     <use xlink:href="#mc737fab77b" x="710.157754" y="426.303879" style="fill: #0000ff; stroke: #0000ff"/>
     <use xlink:href="#mc737fab77b" x="721.347594" y="421.69864" style="fill: #0000ff; stroke: #0000ff"/>
     <use xlink:href="#mc737fab77b" x="732.537433" y="416.551706" style="fill: #0000ff; stroke: #0000ff"/>
     <use xlink:href="#mc737fab77b" x="743.727273" y="410.823824" style="fill: #0000ff; stroke: #0000ff"/>
     <use xlink:href="#mc737fab77b" x="754.917112" y="404.472332" style="fill: #0000ff; stroke: #0000ff"/>
     <use xlink:href="#mc737fab77b" x="766.106952" y="397.450908" style="fill: #0000ff; stroke: #0000ff"/>
     <use xlink:href="#mc737fab77b" x="777.296791" y="389.709288" style="fill: #0000ff; stroke: #0000ff"/>
     <use xlink:href="#mc737fab77b" x="788.486631" y="381.192971" style="fill: #0000ff; stroke: #0000ff"/>
     <use xlink:href="#mc737fab77b" x="799.676471" y="371.842892" style="fill: #0000ff; stroke: #0000ff"/>
     <use xlink:href="#mc737fab77b" x="810.86631" y="361.59507" style="fill: #0000ff; stroke: #0000ff"/>
     <use xlink:href="#mc737fab77b" x="822.05615" y="350.380228" style="fill: #0000ff; stroke: #0000ff"/>
     <use xlink:href="#mc737fab77b" x="833.245989" y="338.123379" style="fill: #0000ff; stroke: #0000ff"/>
     <use xlink:href="#mc737fab77b" x="844.435829" y="324.743383" style="fill: #0000ff; stroke: #0000ff"/>
     <use xlink:href="#mc737fab77b" x="855.625668" y="310.152463" style="fill: #0000ff; stroke: #0000ff"/>
     <use xlink:href="#mc737fab77b" x="866.815508" y="294.255686" style="fill: #0000ff; stroke: #0000ff"/>
     <use xlink:href="#mc737fab77b" x="878.005348" y="276.950394" style="fill: #0000ff; stroke: #0000ff"/>
     <use xlink:href="#mc737fab77b" x="889.195187" y="258.125602" style="fill: #0000ff; stroke: #0000ff"/>
     <use xlink:href="#mc737fab77b" x="900.385027" y="237.66133" style="fill: #0000ff; stroke: #0000ff"/>
     <use xlink:href="#mc737fab77b" x="911.574866" y="215.427901" style="fill: #0000ff; stroke: #0000ff"/>
     <use xlink:href="#mc737fab77b" x="922.764706" y="191.285165" style="fill: #0000ff; stroke: #0000ff"/>
     <use xlink:href="#mc737fab77b" x="933.954545" y="165.08167" style="fill: #0000ff; stroke: #0000ff"/>
    </g>
   </g>
   <g id="matplotlib.axis_1">
    <g id="xtick_1">
     <g id="line2d_1">
      <path d="M 161.855615 640.8 
L 161.855615 86.4 
" clip-path="url(#pfbde2e189a)" style="fill: none; stroke: #b0b0b0; stroke-width: 0.8; stroke-linecap: square"/>
     </g>
     <g id="line2d_2">
      <defs>
       <path id="m9bf51434ba" d="M 0 0 
L 0 3.5 
" style="stroke: #000000; stroke-width: 0.8"/>
      </defs>
      <g>
       <use xlink:href="#m9bf51434ba" x="161.855615" y="640.8" style="stroke: #000000; stroke-width: 0.8"/>
      </g>
     </g>
     <g id="text_1">
      <!-- 0 -->
      <g transform="translate(158.674365 655.398438) scale(0.1 -0.1)">
       <defs>
        <path id="DejaVuSans-30" d="M 2034 4250 
Q 1547 4250 1301 3770 
Q 1056 3291 1056 2328 
Q 1056 1369 1301 889 
Q 1547 409 2034 409 
Q 2525 409 2770 889 
Q 3016 1369 3016 2328 
Q 3016 3291 2770 3770 
Q 2525 4250 2034 4250 
z
M 2034 4750 
Q 2819 4750 3233 4129 
Q 3647 3509 3647 2328 
Q 3647 1150 3233 529 
Q 2819 -91 2034 -91 
Q 1250 -91 836 529 
Q 422 1150 422 2328 
Q 422 3509 836 4129 
Q 1250 4750 2034 4750 
z
" transform="scale(0.015625)"/>
       </defs>
       <use xlink:href="#DejaVuSans-30"/>
      </g>
     </g>
    </g>
    <g id="xtick_2">
     <g id="line2d_3">
      <path d="M 273.754011 640.8 
L 273.754011 86.4 
" clip-path="url(#pfbde2e189a)" style="fill: none; stroke: #b0b0b0; stroke-width: 0.8; stroke-linecap: square"/>
     </g>
     <g id="line2d_4">
      <g>
       <use xlink:href="#m9bf51434ba" x="273.754011" y="640.8" style="stroke: #000000; stroke-width: 0.8"/>
      </g>
     </g>
     <g id="text_2">
      <!-- 10 -->
      <g transform="translate(267.391511 655.398438) scale(0.1 -0.1)">
       <defs>
        <path id="DejaVuSans-31" d="M 794 531 
L 1825 531 
L 1825 4091 
L 703 3866 
L 703 4441 
L 1819 4666 
L 2450 4666 
L 2450 531 
L 3481 531 
L 3481 0 
L 794 0 
L 794 531 
z
" transform="scale(0.015625)"/>
       </defs>
       <use xlink:href="#DejaVuSans-31"/>
       <use xlink:href="#DejaVuSans-30" x="63.623047"/>
      </g>
     </g>
    </g>
    <g id="xtick_3">
     <g id="line2d_5">
      <path d="M 385.652406 640.8 
L 385.652406 86.4 
" clip-path="url(#pfbde2e189a)" style="fill: none; stroke: #b0b0b0; stroke-width: 0.8; stroke-linecap: square"/>
     </g>
     <g id="line2d_6">
      <g>
       <use xlink:href="#m9bf51434ba" x="385.652406" y="640.8" style="stroke: #000000; stroke-width: 0.8"/>
      </g>
     </g>
     <g id="text_3">
      <!-- 20 -->
      <g transform="translate(379.289906 655.398438) scale(0.1 -0.1)">
       <defs>
        <path id="DejaVuSans-32" d="M 1228 531 
L 3431 531 
L 3431 0 
L 469 0 
L 469 531 
Q 828 903 1448 1529 
Q 2069 2156 2228 2338 
Q 2531 2678 2651 2914 
Q 2772 3150 2772 3378 
Q 2772 3750 2511 3984 
Q 2250 4219 1831 4219 
Q 1534 4219 1204 4116 
Q 875 4013 500 3803 
L 500 4441 
Q 881 4594 1212 4672 
Q 1544 4750 1819 4750 
Q 2544 4750 2975 4387 
Q 3406 4025 3406 3419 
Q 3406 3131 3298 2873 
Q 3191 2616 2906 2266 
Q 2828 2175 2409 1742 
Q 1991 1309 1228 531 
z
" transform="scale(0.015625)"/>
       </defs>
       <use xlink:href="#DejaVuSans-32"/>
       <use xlink:href="#DejaVuSans-30" x="63.623047"/>
      </g>
     </g>
    </g>
    <g id="xtick_4">
     <g id="line2d_7">
      <path d="M 497.550802 640.8 
L 497.550802 86.4 
" clip-path="url(#pfbde2e189a)" style="fill: none; stroke: #b0b0b0; stroke-width: 0.8; stroke-linecap: square"/>
     </g>
     <g id="line2d_8">
      <g>
       <use xlink:href="#m9bf51434ba" x="497.550802" y="640.8" style="stroke: #000000; stroke-width: 0.8"/>
      </g>
     </g>
     <g id="text_4">
      <!-- 30 -->
      <g transform="translate(491.188302 655.398438) scale(0.1 -0.1)">
       <defs>
        <path id="DejaVuSans-33" d="M 2597 2516 
Q 3050 2419 3304 2112 
Q 3559 1806 3559 1356 
Q 3559 666 3084 287 
Q 2609 -91 1734 -91 
Q 1441 -91 1130 -33 
Q 819 25 488 141 
L 488 750 
Q 750 597 1062 519 
Q 1375 441 1716 441 
Q 2309 441 2620 675 
Q 2931 909 2931 1356 
Q 2931 1769 2642 2001 
Q 2353 2234 1838 2234 
L 1294 2234 
L 1294 2753 
L 1863 2753 
Q 2328 2753 2575 2939 
Q 2822 3125 2822 3475 
Q 2822 3834 2567 4026 
Q 2313 4219 1838 4219 
Q 1578 4219 1281 4162 
Q 984 4106 628 3988 
L 628 4550 
Q 988 4650 1302 4700 
Q 1616 4750 1894 4750 
Q 2613 4750 3031 4423 
Q 3450 4097 3450 3541 
Q 3450 3153 3228 2886 
Q 3006 2619 2597 2516 
z
" transform="scale(0.015625)"/>
       </defs>
       <use xlink:href="#DejaVuSans-33"/>
       <use xlink:href="#DejaVuSans-30" x="63.623047"/>
      </g>
     </g>
    </g>
    <g id="xtick_5">
     <g id="line2d_9">
      <path d="M 609.449198 640.8 
L 609.449198 86.4 
" clip-path="url(#pfbde2e189a)" style="fill: none; stroke: #b0b0b0; stroke-width: 0.8; stroke-linecap: square"/>
     </g>
     <g id="line2d_10">
      <g>
       <use xlink:href="#m9bf51434ba" x="609.449198" y="640.8" style="stroke: #000000; stroke-width: 0.8"/>
      </g>
     </g>
     <g id="text_5">
      <!-- 40 -->
      <g transform="translate(603.086698 655.398438) scale(0.1 -0.1)">
       <defs>
        <path id="DejaVuSans-34" d="M 2419 4116 
L 825 1625 
L 2419 1625 
L 2419 4116 
z
M 2253 4666 
L 3047 4666 
L 3047 1625 
L 3713 1625 
L 3713 1100 
L 3047 1100 
L 3047 0 
L 2419 0 
L 2419 1100 
L 313 1100 
L 313 1709 
L 2253 4666 
z
" transform="scale(0.015625)"/>
       </defs>
       <use xlink:href="#DejaVuSans-34"/>
       <use xlink:href="#DejaVuSans-30" x="63.623047"/>
      </g>
     </g>
    </g>
    <g id="xtick_6">
     <g id="line2d_11">
      <path d="M 721.347594 640.8 
L 721.347594 86.4 
" clip-path="url(#pfbde2e189a)" style="fill: none; stroke: #b0b0b0; stroke-width: 0.8; stroke-linecap: square"/>
     </g>
     <g id="line2d_12">
      <g>
       <use xlink:href="#m9bf51434ba" x="721.347594" y="640.8" style="stroke: #000000; stroke-width: 0.8"/>
      </g>
     </g>
     <g id="text_6">
      <!-- 50 -->
      <g transform="translate(714.985094 655.398438) scale(0.1 -0.1)">
       <defs>
        <path id="DejaVuSans-35" d="M 691 4666 
L 3169 4666 
L 3169 4134 
L 1269 4134 
L 1269 2991 
Q 1406 3038 1543 3061 
Q 1681 3084 1819 3084 
Q 2600 3084 3056 2656 
Q 3513 2228 3513 1497 
Q 3513 744 3044 326 
Q 2575 -91 1722 -91 
Q 1428 -91 1123 -41 
Q 819 9 494 109 
L 494 744 
Q 775 591 1075 516 
Q 1375 441 1709 441 
Q 2250 441 2565 725 
Q 2881 1009 2881 1497 
Q 2881 1984 2565 2268 
Q 2250 2553 1709 2553 
Q 1456 2553 1204 2497 
Q 953 2441 691 2322 
L 691 4666 
z
" transform="scale(0.015625)"/>
       </defs>
       <use xlink:href="#DejaVuSans-35"/>
       <use xlink:href="#DejaVuSans-30" x="63.623047"/>
      </g>
     </g>
    </g>
    <g id="xtick_7">
     <g id="line2d_13">
      <path d="M 833.245989 640.8 
L 833.245989 86.4 
" clip-path="url(#pfbde2e189a)" style="fill: none; stroke: #b0b0b0; stroke-width: 0.8; stroke-linecap: square"/>
     </g>
     <g id="line2d_14">
      <g>
       <use xlink:href="#m9bf51434ba" x="833.245989" y="640.8" style="stroke: #000000; stroke-width: 0.8"/>
      </g>
     </g>
     <g id="text_7">
      <!-- 60 -->
      <g transform="translate(826.883489 655.398438) scale(0.1 -0.1)">
       <defs>
        <path id="DejaVuSans-36" d="M 2113 2584 
Q 1688 2584 1439 2293 
Q 1191 2003 1191 1497 
Q 1191 994 1439 701 
Q 1688 409 2113 409 
Q 2538 409 2786 701 
Q 3034 994 3034 1497 
Q 3034 2003 2786 2293 
Q 2538 2584 2113 2584 
z
M 3366 4563 
L 3366 3988 
Q 3128 4100 2886 4159 
Q 2644 4219 2406 4219 
Q 1781 4219 1451 3797 
Q 1122 3375 1075 2522 
Q 1259 2794 1537 2939 
Q 1816 3084 2150 3084 
Q 2853 3084 3261 2657 
Q 3669 2231 3669 1497 
Q 3669 778 3244 343 
Q 2819 -91 2113 -91 
Q 1303 -91 875 529 
Q 447 1150 447 2328 
Q 447 3434 972 4092 
Q 1497 4750 2381 4750 
Q 2619 4750 2861 4703 
Q 3103 4656 3366 4563 
z
" transform="scale(0.015625)"/>
       </defs>
       <use xlink:href="#DejaVuSans-36"/>
       <use xlink:href="#DejaVuSans-30" x="63.623047"/>
      </g>
     </g>
    </g>
    <g id="xtick_8">
     <g id="line2d_15">
      <path d="M 945.144385 640.8 
L 945.144385 86.4 
" clip-path="url(#pfbde2e189a)" style="fill: none; stroke: #b0b0b0; stroke-width: 0.8; stroke-linecap: square"/>
     </g>
     <g id="line2d_16">
      <g>
       <use xlink:href="#m9bf51434ba" x="945.144385" y="640.8" style="stroke: #000000; stroke-width: 0.8"/>
      </g>
     </g>
     <g id="text_8">
      <!-- 70 -->
      <g transform="translate(938.781885 655.398438) scale(0.1 -0.1)">
       <defs>
        <path id="DejaVuSans-37" d="M 525 4666 
L 3525 4666 
L 3525 4397 
L 1831 0 
L 1172 0 
L 2766 4134 
L 525 4134 
L 525 4666 
z
" transform="scale(0.015625)"/>
       </defs>
       <use xlink:href="#DejaVuSans-37"/>
       <use xlink:href="#DejaVuSans-30" x="63.623047"/>
      </g>
     </g>
    </g>
    <g id="text_9">
     <!-- Pitlap number -->
     <g transform="translate(501.026953 672.875781) scale(0.15 -0.15)">
      <defs>
       <path id="DejaVuSans-50" d="M 1259 4147 
L 1259 2394 
L 2053 2394 
Q 2494 2394 2734 2622 
Q 2975 2850 2975 3272 
Q 2975 3691 2734 3919 
Q 2494 4147 2053 4147 
L 1259 4147 
z
M 628 4666 
L 2053 4666 
Q 2838 4666 3239 4311 
Q 3641 3956 3641 3272 
Q 3641 2581 3239 2228 
Q 2838 1875 2053 1875 
L 1259 1875 
L 1259 0 
L 628 0 
L 628 4666 
z
" transform="scale(0.015625)"/>
       <path id="DejaVuSans-69" d="M 603 3500 
L 1178 3500 
L 1178 0 
L 603 0 
L 603 3500 
z
M 603 4863 
L 1178 4863 
L 1178 4134 
L 603 4134 
L 603 4863 
z
" transform="scale(0.015625)"/>
       <path id="DejaVuSans-74" d="M 1172 4494 
L 1172 3500 
L 2356 3500 
L 2356 3053 
L 1172 3053 
L 1172 1153 
Q 1172 725 1289 603 
Q 1406 481 1766 481 
L 2356 481 
L 2356 0 
L 1766 0 
Q 1100 0 847 248 
Q 594 497 594 1153 
L 594 3053 
L 172 3053 
L 172 3500 
L 594 3500 
L 594 4494 
L 1172 4494 
z
" transform="scale(0.015625)"/>
       <path id="DejaVuSans-6c" d="M 603 4863 
L 1178 4863 
L 1178 0 
L 603 0 
L 603 4863 
z
" transform="scale(0.015625)"/>
       <path id="DejaVuSans-61" d="M 2194 1759 
Q 1497 1759 1228 1600 
Q 959 1441 959 1056 
Q 959 750 1161 570 
Q 1363 391 1709 391 
Q 2188 391 2477 730 
Q 2766 1069 2766 1631 
L 2766 1759 
L 2194 1759 
z
M 3341 1997 
L 3341 0 
L 2766 0 
L 2766 531 
Q 2569 213 2275 61 
Q 1981 -91 1556 -91 
Q 1019 -91 701 211 
Q 384 513 384 1019 
Q 384 1609 779 1909 
Q 1175 2209 1959 2209 
L 2766 2209 
L 2766 2266 
Q 2766 2663 2505 2880 
Q 2244 3097 1772 3097 
Q 1472 3097 1187 3025 
Q 903 2953 641 2809 
L 641 3341 
Q 956 3463 1253 3523 
Q 1550 3584 1831 3584 
Q 2591 3584 2966 3190 
Q 3341 2797 3341 1997 
z
" transform="scale(0.015625)"/>
       <path id="DejaVuSans-70" d="M 1159 525 
L 1159 -1331 
L 581 -1331 
L 581 3500 
L 1159 3500 
L 1159 2969 
Q 1341 3281 1617 3432 
Q 1894 3584 2278 3584 
Q 2916 3584 3314 3078 
Q 3713 2572 3713 1747 
Q 3713 922 3314 415 
Q 2916 -91 2278 -91 
Q 1894 -91 1617 61 
Q 1341 213 1159 525 
z
M 3116 1747 
Q 3116 2381 2855 2742 
Q 2594 3103 2138 3103 
Q 1681 3103 1420 2742 
Q 1159 2381 1159 1747 
Q 1159 1113 1420 752 
Q 1681 391 2138 391 
Q 2594 391 2855 752 
Q 3116 1113 3116 1747 
z
" transform="scale(0.015625)"/>
       <path id="DejaVuSans-20" transform="scale(0.015625)"/>
       <path id="DejaVuSans-6e" d="M 3513 2113 
L 3513 0 
L 2938 0 
L 2938 2094 
Q 2938 2591 2744 2837 
Q 2550 3084 2163 3084 
Q 1697 3084 1428 2787 
Q 1159 2491 1159 1978 
L 1159 0 
L 581 0 
L 581 3500 
L 1159 3500 
L 1159 2956 
Q 1366 3272 1645 3428 
Q 1925 3584 2291 3584 
Q 2894 3584 3203 3211 
Q 3513 2838 3513 2113 
z
" transform="scale(0.015625)"/>
       <path id="DejaVuSans-75" d="M 544 1381 
L 544 3500 
L 1119 3500 
L 1119 1403 
Q 1119 906 1312 657 
Q 1506 409 1894 409 
Q 2359 409 2629 706 
Q 2900 1003 2900 1516 
L 2900 3500 
L 3475 3500 
L 3475 0 
L 2900 0 
L 2900 538 
Q 2691 219 2414 64 
Q 2138 -91 1772 -91 
Q 1169 -91 856 284 
Q 544 659 544 1381 
z
M 1991 3584 
L 1991 3584 
z
" transform="scale(0.015625)"/>
       <path id="DejaVuSans-6d" d="M 3328 2828 
Q 3544 3216 3844 3400 
Q 4144 3584 4550 3584 
Q 5097 3584 5394 3201 
Q 5691 2819 5691 2113 
L 5691 0 
L 5113 0 
L 5113 2094 
Q 5113 2597 4934 2840 
Q 4756 3084 4391 3084 
Q 3944 3084 3684 2787 
Q 3425 2491 3425 1978 
L 3425 0 
L 2847 0 
L 2847 2094 
Q 2847 2600 2669 2842 
Q 2491 3084 2119 3084 
Q 1678 3084 1418 2786 
Q 1159 2488 1159 1978 
L 1159 0 
L 581 0 
L 581 3500 
L 1159 3500 
L 1159 2956 
Q 1356 3278 1631 3431 
Q 1906 3584 2284 3584 
Q 2666 3584 2933 3390 
Q 3200 3197 3328 2828 
z
" transform="scale(0.015625)"/>
       <path id="DejaVuSans-62" d="M 3116 1747 
Q 3116 2381 2855 2742 
Q 2594 3103 2138 3103 
Q 1681 3103 1420 2742 
Q 1159 2381 1159 1747 
Q 1159 1113 1420 752 
Q 1681 391 2138 391 
Q 2594 391 2855 752 
Q 3116 1113 3116 1747 
z
M 1159 2969 
Q 1341 3281 1617 3432 
Q 1894 3584 2278 3584 
Q 2916 3584 3314 3078 
Q 3713 2572 3713 1747 
Q 3713 922 3314 415 
Q 2916 -91 2278 -91 
Q 1894 -91 1617 61 
Q 1341 213 1159 525 
L 1159 0 
L 581 0 
L 581 4863 
L 1159 4863 
L 1159 2969 
z
" transform="scale(0.015625)"/>
       <path id="DejaVuSans-65" d="M 3597 1894 
L 3597 1613 
L 953 1613 
Q 991 1019 1311 708 
Q 1631 397 2203 397 
Q 2534 397 2845 478 
Q 3156 559 3463 722 
L 3463 178 
Q 3153 47 2828 -22 
Q 2503 -91 2169 -91 
Q 1331 -91 842 396 
Q 353 884 353 1716 
Q 353 2575 817 3079 
Q 1281 3584 2069 3584 
Q 2775 3584 3186 3129 
Q 3597 2675 3597 1894 
z
M 3022 2063 
Q 3016 2534 2758 2815 
Q 2500 3097 2075 3097 
Q 1594 3097 1305 2825 
Q 1016 2553 972 2059 
L 3022 2063 
z
" transform="scale(0.015625)"/>
       <path id="DejaVuSans-72" d="M 2631 2963 
Q 2534 3019 2420 3045 
Q 2306 3072 2169 3072 
Q 1681 3072 1420 2755 
Q 1159 2438 1159 1844 
L 1159 0 
L 581 0 
L 581 3500 
L 1159 3500 
L 1159 2956 
Q 1341 3275 1631 3429 
Q 1922 3584 2338 3584 
Q 2397 3584 2469 3576 
Q 2541 3569 2628 3553 
L 2631 2963 
z
" transform="scale(0.015625)"/>
      </defs>
      <use xlink:href="#DejaVuSans-50"/>
      <use xlink:href="#DejaVuSans-69" x="58.052734"/>
      <use xlink:href="#DejaVuSans-74" x="85.835938"/>
      <use xlink:href="#DejaVuSans-6c" x="125.044922"/>
      <use xlink:href="#DejaVuSans-61" x="152.828125"/>
      <use xlink:href="#DejaVuSans-70" x="214.107422"/>
      <use xlink:href="#DejaVuSans-20" x="277.583984"/>
      <use xlink:href="#DejaVuSans-6e" x="309.371094"/>
      <use xlink:href="#DejaVuSans-75" x="372.75"/>
      <use xlink:href="#DejaVuSans-6d" x="436.128906"/>
      <use xlink:href="#DejaVuSans-62" x="533.541016"/>
      <use xlink:href="#DejaVuSans-65" x="597.017578"/>
      <use xlink:href="#DejaVuSans-72" x="658.541016"/>
     </g>
    </g>
   </g>
   <g id="matplotlib.axis_2">
    <g id="ytick_1">
     <g id="line2d_17">
      <path d="M 135 640.8 
L 972 640.8 
" clip-path="url(#pfbde2e189a)" style="fill: none; stroke: #b0b0b0; stroke-width: 0.8; stroke-linecap: square"/>
     </g>
     <g id="line2d_18">
      <defs>
       <path id="mbc321524f9" d="M 0 0 
L -3.5 0 
" style="stroke: #000000; stroke-width: 0.8"/>
      </defs>
      <g>
       <use xlink:href="#mbc321524f9" x="135" y="640.8" style="stroke: #000000; stroke-width: 0.8"/>
      </g>
     </g>
     <g id="text_10">
      <!-- 115 -->
      <g transform="translate(108.9125 644.599219) scale(0.1 -0.1)">
       <use xlink:href="#DejaVuSans-31"/>
       <use xlink:href="#DejaVuSans-31" x="63.623047"/>
       <use xlink:href="#DejaVuSans-35" x="127.246094"/>
      </g>
     </g>
    </g>
    <g id="ytick_2">
     <g id="line2d_19">
      <path d="M 135 529.92 
L 972 529.92 
" clip-path="url(#pfbde2e189a)" style="fill: none; stroke: #b0b0b0; stroke-width: 0.8; stroke-linecap: square"/>
     </g>
     <g id="line2d_20">
      <g>
       <use xlink:href="#mbc321524f9" x="135" y="529.92" style="stroke: #000000; stroke-width: 0.8"/>
      </g>
     </g>
     <g id="text_11">
      <!-- 116 -->
      <g transform="translate(108.9125 533.719219) scale(0.1 -0.1)">
       <use xlink:href="#DejaVuSans-31"/>
       <use xlink:href="#DejaVuSans-31" x="63.623047"/>
       <use xlink:href="#DejaVuSans-36" x="127.246094"/>
      </g>
     </g>
    </g>
    <g id="ytick_3">
     <g id="line2d_21">
      <path d="M 135 419.04 
L 972 419.04 
" clip-path="url(#pfbde2e189a)" style="fill: none; stroke: #b0b0b0; stroke-width: 0.8; stroke-linecap: square"/>
     </g>
     <g id="line2d_22">
      <g>
       <use xlink:href="#mbc321524f9" x="135" y="419.04" style="stroke: #000000; stroke-width: 0.8"/>
      </g>
     </g>
     <g id="text_12">
      <!-- 117 -->
      <g transform="translate(108.9125 422.839219) scale(0.1 -0.1)">
       <use xlink:href="#DejaVuSans-31"/>
       <use xlink:href="#DejaVuSans-31" x="63.623047"/>
       <use xlink:href="#DejaVuSans-37" x="127.246094"/>
      </g>
     </g>
    </g>
    <g id="ytick_4">
     <g id="line2d_23">
      <path d="M 135 308.16 
L 972 308.16 
" clip-path="url(#pfbde2e189a)" style="fill: none; stroke: #b0b0b0; stroke-width: 0.8; stroke-linecap: square"/>
     </g>
     <g id="line2d_24">
      <g>
       <use xlink:href="#mbc321524f9" x="135" y="308.16" style="stroke: #000000; stroke-width: 0.8"/>
      </g>
     </g>
     <g id="text_13">
      <!-- 118 -->
      <g transform="translate(108.9125 311.959219) scale(0.1 -0.1)">
       <defs>
        <path id="DejaVuSans-38" d="M 2034 2216 
Q 1584 2216 1326 1975 
Q 1069 1734 1069 1313 
Q 1069 891 1326 650 
Q 1584 409 2034 409 
Q 2484 409 2743 651 
Q 3003 894 3003 1313 
Q 3003 1734 2745 1975 
Q 2488 2216 2034 2216 
z
M 1403 2484 
Q 997 2584 770 2862 
Q 544 3141 544 3541 
Q 544 4100 942 4425 
Q 1341 4750 2034 4750 
Q 2731 4750 3128 4425 
Q 3525 4100 3525 3541 
Q 3525 3141 3298 2862 
Q 3072 2584 2669 2484 
Q 3125 2378 3379 2068 
Q 3634 1759 3634 1313 
Q 3634 634 3220 271 
Q 2806 -91 2034 -91 
Q 1263 -91 848 271 
Q 434 634 434 1313 
Q 434 1759 690 2068 
Q 947 2378 1403 2484 
z
M 1172 3481 
Q 1172 3119 1398 2916 
Q 1625 2713 2034 2713 
Q 2441 2713 2670 2916 
Q 2900 3119 2900 3481 
Q 2900 3844 2670 4047 
Q 2441 4250 2034 4250 
Q 1625 4250 1398 4047 
Q 1172 3844 1172 3481 
z
" transform="scale(0.015625)"/>
       </defs>
       <use xlink:href="#DejaVuSans-31"/>
       <use xlink:href="#DejaVuSans-31" x="63.623047"/>
       <use xlink:href="#DejaVuSans-38" x="127.246094"/>
      </g>
     </g>
    </g>
    <g id="ytick_5">
     <g id="line2d_25">
      <path d="M 135 197.28 
L 972 197.28 
" clip-path="url(#pfbde2e189a)" style="fill: none; stroke: #b0b0b0; stroke-width: 0.8; stroke-linecap: square"/>
     </g>
     <g id="line2d_26">
      <g>
       <use xlink:href="#mbc321524f9" x="135" y="197.28" style="stroke: #000000; stroke-width: 0.8"/>
      </g>
     </g>
     <g id="text_14">
      <!-- 119 -->
      <g transform="translate(108.9125 201.079219) scale(0.1 -0.1)">
       <defs>
        <path id="DejaVuSans-39" d="M 703 97 
L 703 672 
Q 941 559 1184 500 
Q 1428 441 1663 441 
Q 2288 441 2617 861 
Q 2947 1281 2994 2138 
Q 2813 1869 2534 1725 
Q 2256 1581 1919 1581 
Q 1219 1581 811 2004 
Q 403 2428 403 3163 
Q 403 3881 828 4315 
Q 1253 4750 1959 4750 
Q 2769 4750 3195 4129 
Q 3622 3509 3622 2328 
Q 3622 1225 3098 567 
Q 2575 -91 1691 -91 
Q 1453 -91 1209 -44 
Q 966 3 703 97 
z
M 1959 2075 
Q 2384 2075 2632 2365 
Q 2881 2656 2881 3163 
Q 2881 3666 2632 3958 
Q 2384 4250 1959 4250 
Q 1534 4250 1286 3958 
Q 1038 3666 1038 3163 
Q 1038 2656 1286 2365 
Q 1534 2075 1959 2075 
z
" transform="scale(0.015625)"/>
       </defs>
       <use xlink:href="#DejaVuSans-31"/>
       <use xlink:href="#DejaVuSans-31" x="63.623047"/>
       <use xlink:href="#DejaVuSans-39" x="127.246094"/>
      </g>
     </g>
    </g>
    <g id="ytick_6">
     <g id="line2d_27">
      <path d="M 135 86.4 
L 972 86.4 
" clip-path="url(#pfbde2e189a)" style="fill: none; stroke: #b0b0b0; stroke-width: 0.8; stroke-linecap: square"/>
     </g>
     <g id="line2d_28">
      <g>
       <use xlink:href="#mbc321524f9" x="135" y="86.4" style="stroke: #000000; stroke-width: 0.8"/>
      </g>
     </g>
     <g id="text_15">
      <!-- 120 -->
      <g transform="translate(108.9125 90.199219) scale(0.1 -0.1)">
       <use xlink:href="#DejaVuSans-31"/>
       <use xlink:href="#DejaVuSans-32" x="63.623047"/>
       <use xlink:href="#DejaVuSans-30" x="127.246094"/>
      </g>
     </g>
    </g>
    <g id="text_16">
     <!-- Total Race time (min) -->
     <g transform="translate(101.792969 443.581641) rotate(-90) scale(0.15 -0.15)">
      <defs>
       <path id="DejaVuSans-54" d="M -19 4666 
L 3928 4666 
L 3928 4134 
L 2272 4134 
L 2272 0 
L 1638 0 
L 1638 4134 
L -19 4134 
L -19 4666 
z
" transform="scale(0.015625)"/>
       <path id="DejaVuSans-6f" d="M 1959 3097 
Q 1497 3097 1228 2736 
Q 959 2375 959 1747 
Q 959 1119 1226 758 
Q 1494 397 1959 397 
Q 2419 397 2687 759 
Q 2956 1122 2956 1747 
Q 2956 2369 2687 2733 
Q 2419 3097 1959 3097 
z
M 1959 3584 
Q 2709 3584 3137 3096 
Q 3566 2609 3566 1747 
Q 3566 888 3137 398 
Q 2709 -91 1959 -91 
Q 1206 -91 779 398 
Q 353 888 353 1747 
Q 353 2609 779 3096 
Q 1206 3584 1959 3584 
z
" transform="scale(0.015625)"/>
       <path id="DejaVuSans-52" d="M 2841 2188 
Q 3044 2119 3236 1894 
Q 3428 1669 3622 1275 
L 4263 0 
L 3584 0 
L 2988 1197 
Q 2756 1666 2539 1819 
Q 2322 1972 1947 1972 
L 1259 1972 
L 1259 0 
L 628 0 
L 628 4666 
L 2053 4666 
Q 2853 4666 3247 4331 
Q 3641 3997 3641 3322 
Q 3641 2881 3436 2590 
Q 3231 2300 2841 2188 
z
M 1259 4147 
L 1259 2491 
L 2053 2491 
Q 2509 2491 2742 2702 
Q 2975 2913 2975 3322 
Q 2975 3731 2742 3939 
Q 2509 4147 2053 4147 
L 1259 4147 
z
" transform="scale(0.015625)"/>
       <path id="DejaVuSans-63" d="M 3122 3366 
L 3122 2828 
Q 2878 2963 2633 3030 
Q 2388 3097 2138 3097 
Q 1578 3097 1268 2742 
Q 959 2388 959 1747 
Q 959 1106 1268 751 
Q 1578 397 2138 397 
Q 2388 397 2633 464 
Q 2878 531 3122 666 
L 3122 134 
Q 2881 22 2623 -34 
Q 2366 -91 2075 -91 
Q 1284 -91 818 406 
Q 353 903 353 1747 
Q 353 2603 823 3093 
Q 1294 3584 2113 3584 
Q 2378 3584 2631 3529 
Q 2884 3475 3122 3366 
z
" transform="scale(0.015625)"/>
       <path id="DejaVuSans-28" d="M 1984 4856 
Q 1566 4138 1362 3434 
Q 1159 2731 1159 2009 
Q 1159 1288 1364 580 
Q 1569 -128 1984 -844 
L 1484 -844 
Q 1016 -109 783 600 
Q 550 1309 550 2009 
Q 550 2706 781 3412 
Q 1013 4119 1484 4856 
L 1984 4856 
z
" transform="scale(0.015625)"/>
       <path id="DejaVuSans-29" d="M 513 4856 
L 1013 4856 
Q 1481 4119 1714 3412 
Q 1947 2706 1947 2009 
Q 1947 1309 1714 600 
Q 1481 -109 1013 -844 
L 513 -844 
Q 928 -128 1133 580 
Q 1338 1288 1338 2009 
Q 1338 2731 1133 3434 
Q 928 4138 513 4856 
z
" transform="scale(0.015625)"/>
      </defs>
      <use xlink:href="#DejaVuSans-54"/>
      <use xlink:href="#DejaVuSans-6f" x="44.083984"/>
      <use xlink:href="#DejaVuSans-74" x="105.265625"/>
      <use xlink:href="#DejaVuSans-61" x="144.474609"/>
      <use xlink:href="#DejaVuSans-6c" x="205.753906"/>
      <use xlink:href="#DejaVuSans-20" x="233.537109"/>
      <use xlink:href="#DejaVuSans-52" x="265.324219"/>
      <use xlink:href="#DejaVuSans-61" x="332.556641"/>
      <use xlink:href="#DejaVuSans-63" x="393.835938"/>
      <use xlink:href="#DejaVuSans-65" x="448.816406"/>
      <use xlink:href="#DejaVuSans-20" x="510.339844"/>
      <use xlink:href="#DejaVuSans-74" x="542.126953"/>
      <use xlink:href="#DejaVuSans-69" x="581.335938"/>
      <use xlink:href="#DejaVuSans-6d" x="609.119141"/>
      <use xlink:href="#DejaVuSans-65" x="706.53125"/>
      <use xlink:href="#DejaVuSans-20" x="768.054688"/>
      <use xlink:href="#DejaVuSans-28" x="799.841797"/>
      <use xlink:href="#DejaVuSans-6d" x="838.855469"/>
      <use xlink:href="#DejaVuSans-69" x="936.267578"/>
      <use xlink:href="#DejaVuSans-6e" x="964.050781"/>
      <use xlink:href="#DejaVuSans-29" x="1027.429688"/>
     </g>
    </g>
   </g>
   <g id="patch_3">
    <path d="M 135 640.8 
L 135 86.4 
" style="fill: none; stroke: #000000; stroke-width: 0.8; stroke-linejoin: miter; stroke-linecap: square"/>
   </g>
   <g id="patch_4">
    <path d="M 972 640.8 
L 972 86.4 
" style="fill: none; stroke: #000000; stroke-width: 0.8; stroke-linejoin: miter; stroke-linecap: square"/>
   </g>
   <g id="patch_5">
    <path d="M 135 640.8 
L 972 640.8 
" style="fill: none; stroke: #000000; stroke-width: 0.8; stroke-linejoin: miter; stroke-linecap: square"/>
   </g>
   <g id="patch_6">
    <path d="M 135 86.4 
L 972 86.4 
" style="fill: none; stroke: #000000; stroke-width: 0.8; stroke-linejoin: miter; stroke-linecap: square"/>
   </g>
   <g id="text_17">
    <!-- Race total time for one-stop strategies -->
    <g transform="translate(408.489844 80.4) scale(0.15 -0.15)">
     <defs>
      <path id="DejaVuSans-66" d="M 2375 4863 
L 2375 4384 
L 1825 4384 
Q 1516 4384 1395 4259 
Q 1275 4134 1275 3809 
L 1275 3500 
L 2222 3500 
L 2222 3053 
L 1275 3053 
L 1275 0 
L 697 0 
L 697 3053 
L 147 3053 
L 147 3500 
L 697 3500 
L 697 3744 
Q 697 4328 969 4595 
Q 1241 4863 1831 4863 
L 2375 4863 
z
" transform="scale(0.015625)"/>
      <path id="DejaVuSans-2d" d="M 313 2009 
L 1997 2009 
L 1997 1497 
L 313 1497 
L 313 2009 
z
" transform="scale(0.015625)"/>
      <path id="DejaVuSans-73" d="M 2834 3397 
L 2834 2853 
Q 2591 2978 2328 3040 
Q 2066 3103 1784 3103 
Q 1356 3103 1142 2972 
Q 928 2841 928 2578 
Q 928 2378 1081 2264 
Q 1234 2150 1697 2047 
L 1894 2003 
Q 2506 1872 2764 1633 
Q 3022 1394 3022 966 
Q 3022 478 2636 193 
Q 2250 -91 1575 -91 
Q 1294 -91 989 -36 
Q 684 19 347 128 
L 347 722 
Q 666 556 975 473 
Q 1284 391 1588 391 
Q 1994 391 2212 530 
Q 2431 669 2431 922 
Q 2431 1156 2273 1281 
Q 2116 1406 1581 1522 
L 1381 1569 
Q 847 1681 609 1914 
Q 372 2147 372 2553 
Q 372 3047 722 3315 
Q 1072 3584 1716 3584 
Q 2034 3584 2315 3537 
Q 2597 3491 2834 3397 
z
" transform="scale(0.015625)"/>
      <path id="DejaVuSans-67" d="M 2906 1791 
Q 2906 2416 2648 2759 
Q 2391 3103 1925 3103 
Q 1463 3103 1205 2759 
Q 947 2416 947 1791 
Q 947 1169 1205 825 
Q 1463 481 1925 481 
Q 2391 481 2648 825 
Q 2906 1169 2906 1791 
z
M 3481 434 
Q 3481 -459 3084 -895 
Q 2688 -1331 1869 -1331 
Q 1566 -1331 1297 -1286 
Q 1028 -1241 775 -1147 
L 775 -588 
Q 1028 -725 1275 -790 
Q 1522 -856 1778 -856 
Q 2344 -856 2625 -561 
Q 2906 -266 2906 331 
L 2906 616 
Q 2728 306 2450 153 
Q 2172 0 1784 0 
Q 1141 0 747 490 
Q 353 981 353 1791 
Q 353 2603 747 3093 
Q 1141 3584 1784 3584 
Q 2172 3584 2450 3431 
Q 2728 3278 2906 2969 
L 2906 3500 
L 3481 3500 
L 3481 434 
z
" transform="scale(0.015625)"/>
     </defs>
     <use xlink:href="#DejaVuSans-52"/>
     <use xlink:href="#DejaVuSans-61" x="67.232422"/>
     <use xlink:href="#DejaVuSans-63" x="128.511719"/>
     <use xlink:href="#DejaVuSans-65" x="183.492188"/>
     <use xlink:href="#DejaVuSans-20" x="245.015625"/>
     <use xlink:href="#DejaVuSans-74" x="276.802734"/>
     <use xlink:href="#DejaVuSans-6f" x="316.011719"/>
     <use xlink:href="#DejaVuSans-74" x="377.193359"/>
     <use xlink:href="#DejaVuSans-61" x="416.402344"/>
     <use xlink:href="#DejaVuSans-6c" x="477.681641"/>
     <use xlink:href="#DejaVuSans-20" x="505.464844"/>
     <use xlink:href="#DejaVuSans-74" x="537.251953"/>
     <use xlink:href="#DejaVuSans-69" x="576.460938"/>
     <use xlink:href="#DejaVuSans-6d" x="604.244141"/>
     <use xlink:href="#DejaVuSans-65" x="701.65625"/>
     <use xlink:href="#DejaVuSans-20" x="763.179688"/>
     <use xlink:href="#DejaVuSans-66" x="794.966797"/>
     <use xlink:href="#DejaVuSans-6f" x="830.171875"/>
     <use xlink:href="#DejaVuSans-72" x="891.353516"/>
     <use xlink:href="#DejaVuSans-20" x="932.466797"/>
     <use xlink:href="#DejaVuSans-6f" x="964.253906"/>
     <use xlink:href="#DejaVuSans-6e" x="1025.435547"/>
     <use xlink:href="#DejaVuSans-65" x="1088.814453"/>
     <use xlink:href="#DejaVuSans-2d" x="1150.337891"/>
     <use xlink:href="#DejaVuSans-73" x="1186.421875"/>
     <use xlink:href="#DejaVuSans-74" x="1238.521484"/>
     <use xlink:href="#DejaVuSans-6f" x="1277.730469"/>
     <use xlink:href="#DejaVuSans-70" x="1338.912109"/>
     <use xlink:href="#DejaVuSans-20" x="1402.388672"/>
     <use xlink:href="#DejaVuSans-73" x="1434.175781"/>
     <use xlink:href="#DejaVuSans-74" x="1486.275391"/>
     <use xlink:href="#DejaVuSans-72" x="1525.484375"/>
     <use xlink:href="#DejaVuSans-61" x="1566.597656"/>
     <use xlink:href="#DejaVuSans-74" x="1627.876953"/>
     <use xlink:href="#DejaVuSans-65" x="1667.085938"/>
     <use xlink:href="#DejaVuSans-67" x="1728.609375"/>
     <use xlink:href="#DejaVuSans-69" x="1792.085938"/>
     <use xlink:href="#DejaVuSans-65" x="1819.869141"/>
     <use xlink:href="#DejaVuSans-73" x="1881.392578"/>
    </g>
   </g>
   <g id="legend_1">
    <g id="patch_7">
     <path d="M 794.803125 164.451562 
L 961.5 164.451562 
Q 964.5 164.451562 964.5 161.451562 
L 964.5 96.9 
Q 964.5 93.9 961.5 93.9 
L 794.803125 93.9 
Q 791.803125 93.9 791.803125 96.9 
L 791.803125 161.451562 
Q 791.803125 164.451562 794.803125 164.451562 
z
" style="fill: #ffffff; opacity: 0.8; stroke: #cccccc; stroke-linejoin: miter"/>
    </g>
    <g id="PathCollection_4">
     <g>
      <use xlink:href="#me4999c97de" x="812.803125" y="107.360156" style="fill: #ff0000; stroke: #ff0000"/>
     </g>
    </g>
    <g id="text_18">
     <!-- Soft to medium -->
     <g transform="translate(839.803125 111.297656) scale(0.15 -0.15)">
      <defs>
       <path id="DejaVuSans-53" d="M 3425 4513 
L 3425 3897 
Q 3066 4069 2747 4153 
Q 2428 4238 2131 4238 
Q 1616 4238 1336 4038 
Q 1056 3838 1056 3469 
Q 1056 3159 1242 3001 
Q 1428 2844 1947 2747 
L 2328 2669 
Q 3034 2534 3370 2195 
Q 3706 1856 3706 1288 
Q 3706 609 3251 259 
Q 2797 -91 1919 -91 
Q 1588 -91 1214 -16 
Q 841 59 441 206 
L 441 856 
Q 825 641 1194 531 
Q 1563 422 1919 422 
Q 2459 422 2753 634 
Q 3047 847 3047 1241 
Q 3047 1584 2836 1778 
Q 2625 1972 2144 2069 
L 1759 2144 
Q 1053 2284 737 2584 
Q 422 2884 422 3419 
Q 422 4038 858 4394 
Q 1294 4750 2059 4750 
Q 2388 4750 2728 4690 
Q 3069 4631 3425 4513 
z
" transform="scale(0.015625)"/>
       <path id="DejaVuSans-64" d="M 2906 2969 
L 2906 4863 
L 3481 4863 
L 3481 0 
L 2906 0 
L 2906 525 
Q 2725 213 2448 61 
Q 2172 -91 1784 -91 
Q 1150 -91 751 415 
Q 353 922 353 1747 
Q 353 2572 751 3078 
Q 1150 3584 1784 3584 
Q 2172 3584 2448 3432 
Q 2725 3281 2906 2969 
z
M 947 1747 
Q 947 1113 1208 752 
Q 1469 391 1925 391 
Q 2381 391 2643 752 
Q 2906 1113 2906 1747 
Q 2906 2381 2643 2742 
Q 2381 3103 1925 3103 
Q 1469 3103 1208 2742 
Q 947 2381 947 1747 
z
" transform="scale(0.015625)"/>
      </defs>
      <use xlink:href="#DejaVuSans-53"/>
      <use xlink:href="#DejaVuSans-6f" x="63.476562"/>
      <use xlink:href="#DejaVuSans-66" x="124.658203"/>
      <use xlink:href="#DejaVuSans-74" x="158.113281"/>
      <use xlink:href="#DejaVuSans-20" x="197.322266"/>
      <use xlink:href="#DejaVuSans-74" x="229.109375"/>
      <use xlink:href="#DejaVuSans-6f" x="268.318359"/>
      <use xlink:href="#DejaVuSans-20" x="329.5"/>
      <use xlink:href="#DejaVuSans-6d" x="361.287109"/>
      <use xlink:href="#DejaVuSans-65" x="458.699219"/>
      <use xlink:href="#DejaVuSans-64" x="520.222656"/>
      <use xlink:href="#DejaVuSans-69" x="583.699219"/>
      <use xlink:href="#DejaVuSans-75" x="611.482422"/>
      <use xlink:href="#DejaVuSans-6d" x="674.861328"/>
     </g>
    </g>
    <g id="PathCollection_5">
     <g>
      <use xlink:href="#m6ef86f50b1" x="812.803125" y="129.377344" style="fill: #008000; stroke: #008000"/>
     </g>
    </g>
    <g id="text_19">
     <!-- Soft to hard -->
     <g transform="translate(839.803125 133.314844) scale(0.15 -0.15)">
      <defs>
       <path id="DejaVuSans-68" d="M 3513 2113 
L 3513 0 
L 2938 0 
L 2938 2094 
Q 2938 2591 2744 2837 
Q 2550 3084 2163 3084 
Q 1697 3084 1428 2787 
Q 1159 2491 1159 1978 
L 1159 0 
L 581 0 
L 581 4863 
L 1159 4863 
L 1159 2956 
Q 1366 3272 1645 3428 
Q 1925 3584 2291 3584 
Q 2894 3584 3203 3211 
Q 3513 2838 3513 2113 
z
" transform="scale(0.015625)"/>
      </defs>
      <use xlink:href="#DejaVuSans-53"/>
      <use xlink:href="#DejaVuSans-6f" x="63.476562"/>
      <use xlink:href="#DejaVuSans-66" x="124.658203"/>
      <use xlink:href="#DejaVuSans-74" x="158.113281"/>
      <use xlink:href="#DejaVuSans-20" x="197.322266"/>
      <use xlink:href="#DejaVuSans-74" x="229.109375"/>
      <use xlink:href="#DejaVuSans-6f" x="268.318359"/>
      <use xlink:href="#DejaVuSans-20" x="329.5"/>
      <use xlink:href="#DejaVuSans-68" x="361.287109"/>
      <use xlink:href="#DejaVuSans-61" x="424.666016"/>
      <use xlink:href="#DejaVuSans-72" x="485.945312"/>
      <use xlink:href="#DejaVuSans-64" x="525.308594"/>
     </g>
    </g>
    <g id="PathCollection_6">
     <g>
      <use xlink:href="#mc737fab77b" x="812.803125" y="151.394531" style="fill: #0000ff; stroke: #0000ff"/>
     </g>
    </g>
    <g id="text_20">
     <!-- Medium to hard -->
     <g transform="translate(839.803125 155.332031) scale(0.15 -0.15)">
      <defs>
       <path id="DejaVuSans-4d" d="M 628 4666 
L 1569 4666 
L 2759 1491 
L 3956 4666 
L 4897 4666 
L 4897 0 
L 4281 0 
L 4281 4097 
L 3078 897 
L 2444 897 
L 1241 4097 
L 1241 0 
L 628 0 
L 628 4666 
z
" transform="scale(0.015625)"/>
      </defs>
      <use xlink:href="#DejaVuSans-4d"/>
      <use xlink:href="#DejaVuSans-65" x="86.279297"/>
      <use xlink:href="#DejaVuSans-64" x="147.802734"/>
      <use xlink:href="#DejaVuSans-69" x="211.279297"/>
      <use xlink:href="#DejaVuSans-75" x="239.0625"/>
      <use xlink:href="#DejaVuSans-6d" x="302.441406"/>
      <use xlink:href="#DejaVuSans-20" x="399.853516"/>
      <use xlink:href="#DejaVuSans-74" x="431.640625"/>
      <use xlink:href="#DejaVuSans-6f" x="470.849609"/>
      <use xlink:href="#DejaVuSans-20" x="532.03125"/>
      <use xlink:href="#DejaVuSans-68" x="563.818359"/>
      <use xlink:href="#DejaVuSans-61" x="627.197266"/>
      <use xlink:href="#DejaVuSans-72" x="688.476562"/>
      <use xlink:href="#DejaVuSans-64" x="727.839844"/>
     </g>
    </g>
   </g>
  </g>
 </g>
 <defs>
  <clipPath id="pfbde2e189a">
   <rect x="135" y="86.4" width="837" height="554.4"/>
  </clipPath>
 </defs>
</svg>
