<?xml version="1.0" standalone="no"?>
<!DOCTYPE svg PUBLIC "-//W3C//DTD SVG 20010904//EN"
 "http://www.w3.org/TR/2001/REC-SVG-20010904/DTD/svg10.dtd">
<svg version="1.0" xmlns="http://www.w3.org/2000/svg"
 width="928.000000pt" height="383.000000pt" viewBox="0 0 928.000000 383.000000"
 preserveAspectRatio="xMidYMid meet">

<g transform="translate(0.000000,383.000000) scale(0.100000,-0.100000)"
fill="#000000" stroke="none">
<path d="M920 3764 c-23 -14 -23 -14 -2 -9 21 6 22 4 22 -74 0 -67 -3 -80 -17
-84 -10 -3 5 -5 32 -5 28 0 42 2 33 5 -16 4 -18 17 -18 94 0 96 -4 101 -50 73z"/>
<path d="M1049 3764 c-7 -9 -15 -42 -17 -74 -4 -53 -2 -61 21 -84 31 -31 38
-32 67 -8 31 25 40 120 16 157 -19 29 -66 34 -87 9z m75 -42 c6 -26 6 -58 0
-80 -7 -30 -14 -37 -34 -37 -26 0 -37 23 -39 82 -2 52 15 85 42 81 17 -2 24
-12 31 -46z"/>
<path d="M1196 3765 c-20 -20 -30 -76 -22 -120 13 -65 76 -81 106 -25 13 24
13 116 0 141 -13 23 -62 26 -84 4z m64 -14 c16 -31 13 -127 -6 -145 -8 -9 -17
-16 -19 -16 -2 0 -11 7 -19 16 -11 11 -16 35 -16 83 0 37 3 71 7 74 13 14 43
7 53 -12z"/>
<path d="M1458 3683 l62 -4 0 -269 0 -269 -62 -4 -63 -3 63 -2 62 -2 0 -265 0
-265 -57 -2 -58 -1 55 -6 55 -6 3 -267 2 -267 -62 -4 -63 -3 63 -2 62 -2 0
-270 0 -269 -62 -4 -63 -3 63 -2 62 -2 0 -265 0 -265 -57 -2 -58 -1 55 -6 55
-6 6 -60 6 -60 1 58 c2 56 2 57 32 57 17 0 30 5 30 10 0 6 -13 10 -30 10 l-30
0 0 675 0 675 3755 0 3755 0 0 -665 c0 -438 3 -665 10 -665 7 0 9 453 8 1353
l-3 1352 -3830 1 c-2106 0 -3802 -1 -3767 -3z m7582 -678 l0 -675 -3755 0
-3755 0 0 675 0 675 3755 0 3755 0 0 -675z"/>
<path d="M1912 3497 c7 -8 27 -50 43 -95 17 -45 34 -80 40 -79 5 2 25 41 43
88 19 46 39 87 45 91 7 4 -1 8 -18 8 -16 0 -25 -4 -19 -8 7 -5 2 -30 -17 -77
l-27 -70 -12 30 c-29 72 -39 108 -34 116 3 5 -9 9 -26 9 -26 0 -29 -2 -18 -13z"/>
<path d="M2118 3503 c8 -3 12 -31 12 -88 0 -57 -4 -85 -12 -88 -7 -3 19 -6 58
-6 66 -1 72 1 77 22 5 20 5 20 -7 5 -8 -12 -27 -18 -50 -18 -35 0 -36 1 -36
40 0 38 2 40 29 40 16 0 32 -6 34 -12 3 -7 6 2 6 20 1 31 0 32 -15 17 -9 -9
-23 -14 -31 -11 -8 3 -17 6 -19 6 -2 0 -4 16 -4 35 0 34 1 35 39 35 29 0 41
-5 44 -17 4 -14 5 -12 6 5 1 21 -2 22 -71 21 -40 0 -67 -3 -60 -6z"/>
<path d="M2288 3503 c8 -3 12 -31 12 -88 0 -71 -3 -84 -17 -88 -10 -3 2 -5 27
-5 25 0 39 2 33 5 -9 3 -13 31 -13 89 l0 85 33 -3 c27 -2 32 -7 32 -28 0 -17
-8 -29 -27 -38 l-28 -13 37 -49 c22 -30 45 -50 56 -50 16 0 14 7 -18 45 l-37
46 26 20 c28 22 33 48 14 67 -7 7 -39 12 -77 11 -37 0 -60 -3 -53 -6z"/>
<path d="M1964 3161 c-33 -15 -64 -61 -64 -96 0 -69 76 -116 153 -94 34 9 37
13 37 44 0 33 -2 35 -32 35 -27 -1 -30 -2 -15 -11 9 -5 17 -21 17 -34 0 -22
-4 -25 -36 -25 -47 0 -69 13 -84 49 -19 46 -5 98 30 116 39 20 66 19 89 -4 17
-17 20 -17 25 -4 4 9 4 18 1 21 -9 10 -100 12 -121 3z"/>
<path d="M2175 3080 c-21 -50 -45 -95 -54 -100 -12 -7 -5 -9 24 -9 22 1 32 3
23 6 -21 5 -21 8 -8 34 16 28 85 27 101 -2 9 -17 8 -23 -2 -30 -9 -6 0 -9 26
-9 23 0 35 4 28 8 -7 5 -29 46 -49 93 -20 46 -40 88 -44 92 -4 4 -24 -33 -45
-83z m48 23 c2 -10 8 -26 12 -35 6 -15 2 -18 -25 -18 -27 0 -31 3 -25 18 4 9
10 25 12 35 3 9 9 17 13 17 4 0 10 -8 13 -17z"/>
<path d="M2355 3145 c-14 -13 -25 -30 -25 -38 0 -19 32 -47 54 -47 31 0 56
-20 56 -44 0 -41 -74 -52 -90 -13 -9 21 -9 21 -9 -4 -1 -21 5 -28 26 -32 58
-11 113 35 98 82 -3 12 -18 23 -33 27 -51 10 -72 23 -72 43 0 40 80 53 80 13
1 -15 2 -15 11 2 24 41 -57 51 -96 11z"/>
<path d="M3637 3113 c-4 -3 -7 -33 -7 -65 0 -45 3 -58 15 -58 12 0 15 14 15
65 0 60 -6 75 -23 58z"/>
<path d="M1932 2808 c-24 -12 -38 -48 -29 -73 4 -8 19 -17 34 -20 50 -11 73
-24 73 -43 0 -41 -57 -57 -92 -25 -17 15 -18 15 -18 -5 0 -23 16 -28 70 -23
76 7 86 111 10 111 -16 0 -36 7 -45 16 -14 14 -14 19 -2 38 20 29 42 31 66 7
20 -20 21 -20 21 -2 0 31 -44 40 -88 19z"/>
<path d="M2110 2733 c-18 -43 -40 -86 -48 -95 -14 -17 -12 -18 19 -18 23 0 30
3 20 9 -8 5 -11 16 -6 30 5 17 14 21 50 21 36 0 45 -4 50 -21 5 -14 2 -25 -6
-30 -9 -6 0 -9 26 -9 22 0 35 4 29 8 -6 4 -28 46 -49 95 -21 48 -41 87 -44 87
-4 0 -22 -35 -41 -77z m58 -29 c-4 -3 -17 -4 -31 -2 -25 3 -25 3 -10 38 l15
35 16 -32 c8 -18 13 -35 10 -39z"/>
<path d="M2278 2803 c8 -3 12 -31 12 -88 0 -57 -4 -85 -12 -88 -7 -3 7 -5 32
-5 25 0 37 2 28 5 -15 4 -18 17 -18 88 0 57 4 85 13 88 6 3 -6 5 -28 5 -22 0
-34 -2 -27 -5z"/>
<path d="M165 3389 c-27 -22 -32 -48 -13 -67 9 -9 10 -15 2 -20 -6 -4 -8 -18
-4 -32 5 -21 7 -22 13 -7 5 14 19 17 85 17 47 0 83 -5 90 -12 9 -9 12 -4 11
23 0 18 -3 28 -6 22 -2 -7 -20 -13 -39 -13 -25 0 -32 4 -28 14 9 24 -23 73
-55 84 -25 9 -34 7 -56 -9z m85 -23 c6 -8 10 -25 8 -38 -6 -44 -98 -33 -98 11
0 38 64 57 90 27z"/>
<path d="M484 3399 c-16 -5 -41 -20 -55 -35 l-24 -26 40 21 c51 27 125 27 185
1 l45 -20 -28 25 c-26 23 -86 46 -117 44 -8 0 -29 -5 -46 -10z"/>
<path d="M421 3285 c0 -19 2 -25 8 -17 5 9 29 12 79 10 l72 -3 -80 -63 c-66
-52 -80 -68 -79 -90 0 -15 3 -21 6 -14 3 8 31 12 88 12 57 0 85 -4 88 -12 3
-7 6 3 6 22 0 28 -2 32 -10 18 -8 -14 -24 -18 -75 -18 -36 0 -64 4 -62 9 2 5
35 35 73 66 103 84 103 85 -9 85 -66 0 -96 4 -99 13 -3 6 -6 -1 -6 -18z"/>
<path d="M156 3218 c-21 -30 -20 -50 5 -82 38 -48 119 -22 119 39 0 59 -91 90
-124 43z m95 -8 c22 -13 25 -43 5 -59 -21 -18 -87 -10 -100 12 -9 15 -7 22 13
38 26 21 53 24 82 9z"/>
<path d="M1052 3218 c-16 -16 -16 -65 1 -71 9 -3 7 -9 -5 -24 -10 -11 -18 -29
-18 -41 0 -27 40 -55 66 -46 53 19 72 73 34 96 -17 11 -18 14 -4 29 9 10 14
28 12 41 -2 18 -10 24 -38 26 -19 2 -41 -3 -48 -10z m66 -21 c6 -28 -16 -49
-39 -36 -19 10 -25 39 -12 53 13 13 48 1 51 -17z m-10 -83 c28 -19 28 -39 0
-58 -40 -29 -82 26 -46 62 15 15 19 15 46 -4z"/>
<path d="M1196 3215 c-20 -20 -30 -76 -22 -120 13 -65 76 -81 106 -25 13 24
13 116 0 141 -13 23 -62 26 -84 4z m64 -14 c16 -31 13 -127 -6 -145 -8 -9 -17
-16 -19 -16 -2 0 -11 7 -19 16 -11 11 -16 35 -16 83 0 37 3 71 7 74 13 14 43
7 53 -12z"/>
<path d="M150 3071 c0 -14 -8 -21 -27 -23 -25 -4 -26 -5 -8 -12 11 -4 28 -12
38 -17 11 -6 17 -6 17 1 0 5 23 10 50 10 51 0 71 15 55 41 -6 8 -10 7 -17 -5
-6 -10 -22 -16 -48 -16 -33 0 -40 3 -40 20 0 11 -4 20 -10 20 -5 0 -10 -9 -10
-19z"/>
<path d="M421 3055 c0 -19 2 -25 8 -17 5 9 29 12 79 10 l72 -3 -80 -63 c-66
-52 -80 -68 -79 -90 0 -15 3 -21 6 -14 3 8 31 12 88 12 57 0 85 -4 88 -12 3
-7 6 3 6 22 0 28 -2 32 -10 18 -8 -14 -24 -18 -75 -18 -36 0 -64 4 -62 9 2 5
35 35 73 66 103 84 103 85 -9 85 -66 0 -96 4 -99 13 -3 6 -6 -1 -6 -18z"/>
<path d="M212 2977 c-6 -6 -14 -25 -17 -40 -5 -18 -13 -27 -24 -25 -22 5 -25
32 -5 53 17 16 17 17 -2 13 -39 -7 -24 -88 17 -88 15 0 25 11 36 40 17 43 24
48 43 25 15 -18 5 -52 -18 -59 -9 -2 -6 -4 8 -3 19 2 26 8 28 30 6 47 -41 85
-66 54z"/>
<path d="M600 2852 c0 -4 -19 -22 -41 -39 l-42 -32 -19 24 c-21 27 -47 32 -66
13 -7 -7 -12 -39 -11 -78 0 -36 3 -59 6 -52 3 8 31 12 88 12 57 0 85 -4 88
-12 3 -7 5 7 5 32 0 25 -2 37 -5 28 -4 -15 -17 -18 -89 -18 l-85 0 3 33 c2 27
8 33 30 35 22 3 30 -2 38 -22 5 -14 12 -26 15 -26 3 0 26 15 50 33 29 21 44
40 45 55 0 12 -2 22 -5 22 -3 0 -5 -4 -5 -8z"/>
<path d="M150 2791 c0 -14 -8 -21 -27 -23 -25 -4 -26 -5 -8 -12 11 -4 28 -12
38 -17 11 -6 17 -6 17 1 0 5 23 10 50 10 51 0 71 15 55 41 -6 8 -10 7 -17 -5
-6 -10 -22 -16 -48 -16 -33 0 -40 3 -40 20 0 11 -4 20 -10 20 -5 0 -10 -9 -10
-19z"/>
<path d="M204 2691 c-56 -6 -60 -8 -53 -26 4 -11 8 -14 8 -7 1 10 15 13 56 10
47 -3 55 0 55 15 0 9 -1 16 -2 15 -2 -1 -30 -4 -64 -7z"/>
<path d="M82 2679 c2 -6 8 -10 13 -10 5 0 11 4 13 10 2 6 -4 11 -13 11 -9 0
-15 -5 -13 -11z"/>
<path d="M1078 2667 c-34 -29 -48 -58 -48 -99 0 -64 48 -93 93 -57 30 23 36
69 12 89 -8 7 -28 10 -45 8 -18 -3 -30 0 -30 6 1 15 31 51 55 64 14 8 15 11 5
12 -8 0 -27 -10 -42 -23z m36 -83 c9 -8 16 -24 16 -34 0 -18 -25 -50 -39 -50
-28 0 -45 83 -18 93 20 9 25 8 41 -9z"/>
<path d="M1196 2675 c-20 -20 -30 -76 -22 -120 13 -65 76 -81 106 -25 13 24
13 116 0 141 -13 23 -62 26 -84 4z m64 -14 c16 -31 13 -127 -6 -145 -8 -9 -17
-16 -19 -16 -2 0 -11 7 -19 16 -11 11 -16 35 -16 83 0 37 3 71 7 74 13 14 43
7 53 -12z"/>
<path d="M419 2646 c40 -48 133 -60 201 -26 21 11 41 24 45 30 9 14 -2 12 -30
-6 -13 -8 -47 -18 -77 -21 -51 -5 -61 -2 -143 36 -5 2 -4 -4 4 -13z"/>
<path d="M165 2609 c-27 -22 -32 -48 -13 -67 9 -9 10 -15 2 -20 -6 -4 -8 -18
-4 -32 5 -21 7 -22 13 -7 5 14 19 17 85 17 47 0 83 -5 90 -12 9 -9 12 -4 11
23 0 18 -3 28 -6 22 -2 -7 -20 -13 -39 -13 -25 0 -32 4 -28 14 9 24 -23 73
-55 84 -25 9 -34 7 -56 -9z m85 -23 c6 -8 10 -25 8 -38 -6 -44 -98 -33 -98 11
0 38 64 57 90 27z"/>
<path d="M548 2493 c-23 -6 -34 -49 -18 -68 26 -32 86 -8 78 31 -4 21 -38 42
-60 37z m52 -44 c0 -17 -5 -20 -32 -17 -22 2 -34 9 -36 21 -3 14 4 17 32 17
30 0 36 -4 36 -21z"/>
<path d="M410 2435 c0 -8 202 -107 207 -101 5 4 -189 106 -202 106 -3 0 -5 -2
-5 -5z"/>
<path d="M167 2373 c-84 -3 -98 -6 -93 -19 3 -9 6 -21 6 -27 0 -6 6 -3 13 7
16 22 53 17 49 -7 -5 -27 26 -76 52 -83 54 -13 98 27 78 71 -6 13 -8 32 -5 44
3 12 4 20 2 19 -2 -1 -48 -4 -102 -5z m77 -36 c24 -17 17 -48 -13 -63 -31 -16
-65 -3 -69 25 -7 45 42 67 82 38z"/>
<path d="M432 2358 c-17 -17 -15 -33 3 -18 19 15 65 5 65 -15 0 -20 -46 -30
-65 -15 -18 15 -20 -1 -3 -18 25 -25 78 -2 78 33 0 35 -53 58 -78 33z"/>
<path d="M161 2211 c-24 -24 -25 -31 -9 -66 20 -45 92 -48 117 -4 9 15 11 36
7 52 -9 39 -23 33 -18 -8 4 -29 0 -36 -19 -44 -23 -8 -24 -6 -29 37 -6 52 -20
62 -49 33z m39 -41 c0 -23 -5 -30 -19 -30 -23 0 -35 28 -20 46 20 24 39 16 39
-16z"/>
<path d="M601 2193 c-1 -9 -18 -13 -49 -13 -26 0 -53 -5 -60 -12 -15 -15 -16
-55 -1 -64 8 -5 8 -8 0 -14 -8 -4 -9 -14 -2 -31 5 -13 10 -18 10 -11 1 8 18
12 50 12 30 0 51 -5 54 -12 3 -7 6 5 6 27 0 25 -2 35 -8 27 -5 -9 -24 -12 -52
-10 -40 3 -44 6 -47 31 -3 26 -2 27 48 27 51 0 69 13 57 42 -4 10 -6 10 -6 1z"/>
<path d="M1099 2133 c-1 -5 -1 -32 1 -60 l2 -53 -31 0 -31 0 26 41 c14 22 23
43 21 45 -3 3 -19 -19 -35 -48 l-31 -53 39 -3 c31 -2 40 -7 40 -22 0 -10 -8
-21 -17 -23 -10 -3 2 -5 27 -6 35 0 41 2 28 10 -22 12 -24 39 -3 39 8 0 15 5
15 10 0 6 -7 10 -15 10 -12 0 -15 13 -15 60 0 33 -4 60 -10 60 -5 0 -11 -3
-11 -7z"/>
<path d="M1196 2125 c-20 -20 -30 -76 -22 -120 13 -65 76 -81 106 -25 13 24
13 116 0 141 -13 23 -62 26 -84 4z m64 -14 c16 -31 13 -127 -6 -145 -8 -9 -17
-16 -19 -16 -2 0 -11 7 -19 16 -11 11 -16 35 -16 83 0 37 3 71 7 74 13 14 43
7 53 -12z"/>
<path d="M150 2071 c0 -14 -8 -21 -27 -23 -25 -4 -26 -5 -8 -12 11 -4 28 -12
38 -17 11 -6 17 -6 17 1 0 5 23 10 50 10 51 0 71 15 55 41 -6 8 -10 7 -17 -5
-6 -10 -22 -16 -48 -16 -33 0 -40 3 -40 20 0 11 -4 20 -10 20 -5 0 -10 -9 -10
-19z"/>
<path d="M600 2020 c0 -6 -27 -10 -60 -10 -61 0 -67 -4 -50 -30 6 -10 10 -11
10 -2 0 8 17 12 49 12 30 0 51 -5 54 -12 3 -7 6 2 6 20 1 17 -1 32 -4 32 -3 0
-5 -4 -5 -10z"/>
<path d="M422 1999 c2 -6 8 -10 13 -10 5 0 11 4 13 10 2 6 -4 11 -13 11 -9 0
-15 -5 -13 -11z"/>
<path d="M144 1974 c-16 -63 84 -114 120 -62 18 25 21 64 7 73 -5 3 -11 -9
-13 -27 -2 -27 -9 -34 -35 -42 -23 -6 -37 -5 -48 4 -18 15 -20 57 -3 62 8 3 6
7 -5 11 -12 5 -18 0 -23 -19z"/>
<path d="M204 1851 c-56 -6 -60 -8 -53 -26 4 -11 8 -14 8 -7 1 10 15 13 56 10
47 -3 55 0 55 15 0 9 -1 16 -2 15 -2 -1 -30 -4 -64 -7z"/>
<path d="M82 1839 c2 -6 8 -10 13 -10 5 0 11 4 13 10 2 6 -4 11 -13 11 -9 0
-15 -5 -13 -11z"/>
<path d="M580 1835 c0 -8 7 -15 15 -15 8 0 15 7 15 15 0 8 -7 15 -15 15 -8 0
-15 -7 -15 -15z"/>
<path d="M167 1773 c-84 -3 -98 -6 -93 -19 3 -9 6 -21 6 -27 0 -6 6 -3 13 7
16 22 53 17 49 -7 -5 -27 26 -76 52 -83 54 -13 98 27 78 71 -6 13 -8 32 -5 44
3 12 4 20 2 19 -2 -1 -48 -4 -102 -5z m77 -36 c24 -17 17 -48 -13 -63 -31 -16
-65 -3 -69 25 -7 45 42 67 82 38z"/>
<path d="M492 1768 c-15 -15 -15 -43 -2 -69 10 -17 7 -19 -35 -19 -32 0 -45
-4 -45 -14 0 -8 5 -18 10 -21 6 -3 10 -1 10 4 0 7 33 11 90 11 l90 0 0 38 c0
27 -7 45 -23 60 -25 24 -76 29 -95 10z m92 -24 c30 -30 15 -64 -28 -64 -36 0
-56 15 -56 42 0 34 57 50 84 22z"/>
<path d="M497 1612 c-38 -42 -6 -112 51 -112 35 0 58 17 67 50 l7 25 -22 -23
c-30 -32 -103 -29 -108 5 -6 42 70 70 102 37 9 -8 16 -11 16 -6 0 18 -37 42
-67 42 -16 0 -37 -8 -46 -18z"/>
<path d="M161 1601 c-24 -24 -25 -31 -9 -66 20 -45 92 -48 117 -4 9 15 11 36
7 52 -9 39 -23 33 -18 -8 4 -29 0 -36 -19 -44 -23 -8 -24 -6 -29 37 -6 52 -20
62 -49 33z m39 -41 c0 -23 -5 -30 -19 -30 -23 0 -35 28 -20 46 20 24 39 16 39
-16z"/>
<path d="M1042 1578 c-7 -7 -12 -19 -12 -27 1 -14 3 -13 14 2 18 23 53 22 66
-3 13 -25 -4 -62 -49 -104 -17 -17 -31 -33 -31 -38 0 -4 27 -8 60 -8 33 0 60
4 60 10 0 6 -21 10 -46 10 l-45 0 40 48 c59 70 53 122 -14 122 -17 0 -36 -5
-43 -12z"/>
<path d="M1196 1575 c-20 -20 -30 -76 -22 -120 13 -65 76 -81 106 -25 13 24
13 116 0 141 -13 23 -62 26 -84 4z m64 -14 c16 -31 13 -127 -6 -145 -8 -9 -17
-16 -19 -16 -2 0 -11 7 -19 16 -11 11 -16 35 -16 83 0 37 3 71 7 74 13 14 43
7 53 -12z"/>
<path d="M140 1482 c0 -4 6 -14 12 -20 9 -9 10 -15 2 -20 -7 -4 -8 -15 -3 -27
4 -11 8 -14 8 -7 1 10 15 13 56 10 53 -3 55 -2 54 22 0 14 -3 19 -6 13 -5 -15
-61 -17 -82 -4 -8 5 -11 16 -8 25 5 11 1 16 -13 16 -11 0 -20 -4 -20 -8z"/>
<path d="M480 1466 c0 -8 5 -18 11 -22 8 -5 8 -9 -1 -14 -9 -6 -10 -12 -1 -26
6 -11 11 -13 11 -6 0 8 17 12 49 12 30 0 51 -5 54 -12 3 -7 5 5 5 27 0 22 -2
32 -5 23 -3 -13 -15 -18 -43 -18 -38 0 -67 20 -55 40 3 5 -1 10 -9 10 -9 0
-16 -6 -16 -14z"/>
<path d="M92 1368 c-7 -7 -12 -40 -12 -77 0 -40 4 -61 9 -53 6 10 31 13 95 10
l86 -3 -1 30 c0 17 -3 24 -6 18 -3 -9 -31 -13 -89 -13 -80 0 -84 1 -84 23 0
35 15 49 46 45 20 -2 30 -10 35 -28 l7 -25 1 26 c2 46 -57 77 -87 47z"/>
<path d="M513 1359 c-27 -10 -40 -55 -25 -80 7 -12 8 -19 1 -21 -6 -2 -7 -12
-1 -27 7 -20 10 -21 15 -8 10 25 162 25 176 0 8 -14 10 -10 10 22 0 22 -3 34
-6 28 -2 -7 -20 -13 -39 -13 -30 0 -34 3 -34 28 -1 50 -52 88 -97 71z m71 -35
c34 -34 13 -67 -40 -62 -32 2 -40 7 -42 26 -7 46 48 71 82 36z"/>
<path d="M1196 1035 c-20 -20 -30 -76 -22 -120 13 -65 76 -81 106 -25 13 24
13 116 0 141 -13 23 -62 26 -84 4z m64 -14 c16 -31 13 -127 -6 -145 -8 -9 -17
-16 -19 -16 -2 0 -11 7 -19 16 -11 11 -16 35 -16 83 0 37 3 71 7 74 13 14 43
7 53 -12z"/>
<path d="M3740 985 l0 -25 -272 -1 c-150 -1 -285 0 -300 1 -16 1 -28 -4 -28
-10 0 -7 16 -11 43 -9 23 1 164 2 313 1 l272 -2 10 -57 9 -58 2 60 c1 33 5 55
9 49 4 -6 13 -4 25 8 16 17 16 18 0 20 -10 0 -28 0 -40 -1 -18 -1 -23 3 -23
24 0 14 -4 25 -10 25 -5 0 -10 -11 -10 -25z"/>
<path d="M4480 1000 c0 -5 5 -10 10 -10 6 0 10 5 10 10 0 6 -4 10 -10 10 -5 0
-10 -4 -10 -10z"/>
<path d="M6078 1003 c7 -3 16 -2 19 1 4 3 -2 6 -13 5 -11 0 -14 -3 -6 -6z"/>
<path d="M7130 1000 c0 -5 5 -10 10 -10 6 0 10 5 10 10 0 6 -4 10 -10 10 -5 0
-10 -4 -10 -10z"/>
<path d="M2736 971 c-6 -9 -24 -12 -58 -9 -53 6 -65 -2 -49 -29 6 -10 11 -13
11 -7 0 18 52 24 83 9 15 -7 27 -9 27 -4 0 13 88 11 92 -2 3 -8 7 -7 15 2 9
11 8 19 -3 33 -8 11 -14 14 -14 8 0 -16 -87 -16 -92 0 -3 9 -6 9 -12 -1z"/>
<path d="M2944 962 c-15 -24 6 -45 24 -25 7 7 22 13 32 13 18 0 20 -7 21 -62
1 -69 4 -68 14 4 4 34 10 45 20 42 21 -8 29 16 11 34 -10 11 -16 12 -16 4 0
-15 -87 -17 -92 -2 -2 6 -8 2 -14 -8z"/>
<path d="M6021 963 c-10 -11 -10 -18 -2 -26 6 -6 12 -34 12 -61 l1 -51 8 49
c5 26 11 53 13 60 3 6 0 19 -7 28 -10 13 -13 13 -25 1z"/>
<path d="M6126 965 c-3 -10 -11 -13 -18 -9 -7 4 -4 -2 7 -13 11 -11 22 -17 25
-13 11 16 57 19 83 5 15 -7 27 -10 27 -4 0 5 20 9 45 9 28 0 45 -4 45 -12 0
-9 3 -9 12 0 15 15 85 16 94 1 5 -8 10 -6 16 5 15 26 2 34 -47 28 -28 -3 -50
0 -60 8 -10 9 -15 9 -15 1 0 -6 -18 -11 -45 -11 -28 0 -45 4 -45 12 0 9 -3 9
-12 0 -15 -15 -80 -16 -95 -1 -7 7 -12 6 -17 -6z"/>
<path d="M1776 961 c-4 -6 -3 -18 2 -27 8 -15 10 -14 16 2 8 20 -8 42 -18 25z"/>
<path d="M1986 961 c-4 -6 -3 -19 3 -28 9 -17 10 -17 17 0 8 21 -10 45 -20 28z"/>
<path d="M2091 956 c-9 -10 -8 -15 2 -19 23 -9 41 8 24 22 -11 9 -17 8 -26 -3z"/>
<path d="M2206 961 c-4 -6 -3 -18 2 -27 8 -15 10 -14 16 2 8 20 -8 42 -18 25z"/>
<path d="M2416 961 c-4 -6 -3 -18 2 -27 8 -15 10 -14 16 2 8 20 -8 42 -18 25z"/>
<path d="M4006 961 c-4 -6 -3 -18 2 -27 8 -15 10 -14 16 2 8 20 -8 42 -18 25z"/>
<path d="M4216 961 c-4 -6 -3 -18 2 -27 8 -15 10 -14 16 2 8 20 -8 42 -18 25z"/>
<path d="M4426 961 c-4 -6 -3 -18 2 -27 8 -15 10 -14 16 2 8 20 -8 42 -18 25z"/>
<path d="M4856 961 c-4 -6 -3 -18 2 -27 8 -15 10 -14 16 2 8 20 -8 42 -18 25z"/>
<path d="M5066 961 c-4 -6 -3 -18 2 -27 8 -15 10 -14 16 2 8 20 -8 42 -18 25z"/>
<path d="M5278 963 c-3 -4 -2 -37 2 -73 l6 -65 5 65 c5 59 -2 95 -13 73z"/>
<path d="M5486 963 c-11 -11 -6 -23 9 -23 8 0 15 4 15 9 0 13 -16 22 -24 14z"/>
<path d="M5590 955 c-10 -13 -9 -15 9 -15 11 0 21 4 21 9 0 18 -18 21 -30 6z"/>
<path d="M5695 960 c-10 -16 7 -31 23 -21 10 6 10 10 -2 20 -10 9 -16 9 -21 1z"/>
<path d="M5801 957 c-9 -12 -8 -16 3 -20 19 -7 32 11 19 24 -6 6 -14 5 -22 -4z"/>
<path d="M5910 960 c-19 -12 -7 -22 21 -18 19 2 20 5 8 15 -9 7 -20 9 -29 3z"/>
<path d="M6546 961 c-4 -6 -3 -19 3 -28 9 -17 10 -17 17 0 8 21 -10 45 -20 28z"/>
<path d="M6654 957 c-9 -24 6 -44 18 -22 7 11 6 21 -1 28 -7 7 -12 6 -17 -6z"/>
<path d="M6866 961 c-4 -6 -3 -18 2 -27 8 -15 10 -14 16 2 8 20 -8 42 -18 25z"/>
<path d="M7076 961 c-4 -6 -3 -18 2 -27 8 -15 10 -14 16 2 8 20 -8 42 -18 25z"/>
<path d="M7181 957 c-9 -12 -8 -16 3 -20 19 -7 32 11 19 24 -6 6 -14 5 -22 -4z"/>
<path d="M7293 954 c-9 -24 10 -33 29 -13 15 16 15 17 -4 22 -11 3 -21 0 -25
-9z"/>
<path d="M7506 961 c-4 -6 -3 -18 2 -27 8 -15 10 -14 16 2 8 20 -8 42 -18 25z"/>
<path d="M7716 961 c-4 -6 -3 -18 2 -27 8 -15 10 -14 16 2 8 20 -8 42 -18 25z"/>
<path d="M7923 962 c-8 -5 -8 -12 2 -25 12 -16 13 -16 19 -1 8 21 -5 36 -21
26z"/>
<path d="M8136 961 c-4 -6 -3 -18 2 -27 8 -15 10 -14 16 2 8 20 -8 42 -18 25z"/>
<path d="M8346 961 c-4 -6 -3 -18 2 -27 8 -15 10 -14 16 2 8 20 -8 42 -18 25z"/>
<path d="M8451 956 c-9 -10 -8 -15 2 -19 23 -9 41 8 24 22 -11 9 -17 8 -26 -3z"/>
<path d="M8566 961 c-4 -6 -3 -18 2 -27 8 -15 10 -14 16 2 8 20 -8 42 -18 25z"/>
<path d="M8776 961 c-4 -6 -3 -18 2 -27 8 -15 10 -14 16 2 8 20 -8 42 -18 25z"/>
<path d="M8986 961 c-4 -6 -3 -18 2 -27 8 -15 10 -14 16 2 8 20 -8 42 -18 25z"/>
<path d="M1618 953 c6 -2 18 -2 25 0 6 3 1 5 -13 5 -14 0 -19 -2 -12 -5z"/>
<path d="M1666 951 c-3 -5 0 -14 8 -20 10 -9 15 -8 19 3 9 22 -15 37 -27 17z"/>
<path d="M1728 953 c7 -3 16 -2 19 1 4 3 -2 6 -13 5 -11 0 -14 -3 -6 -6z"/>
<path d="M1828 953 c6 -2 18 -2 25 0 6 3 1 5 -13 5 -14 0 -19 -2 -12 -5z"/>
<path d="M1876 951 c-3 -5 0 -14 8 -20 10 -9 15 -8 19 3 9 22 -15 37 -27 17z"/>
<path d="M1938 953 c7 -3 16 -2 19 1 4 3 -2 6 -13 5 -11 0 -14 -3 -6 -6z"/>
<path d="M2038 953 c6 -2 18 -2 25 0 6 3 1 5 -13 5 -14 0 -19 -2 -12 -5z"/>
<path d="M2158 953 c7 -3 16 -2 19 1 4 3 -2 6 -13 5 -11 0 -14 -3 -6 -6z"/>
<path d="M2257 952 c6 -4 13 -34 15 -67 l3 -60 5 68 c5 62 4 67 -15 67 -13 0
-16 -3 -8 -8z"/>
<path d="M2306 951 c-3 -5 0 -14 8 -20 10 -9 15 -8 19 3 9 22 -15 37 -27 17z"/>
<path d="M2358 953 c6 -2 18 -2 25 0 6 3 1 5 -13 5 -14 0 -19 -2 -12 -5z"/>
<path d="M2468 953 c6 -2 18 -2 25 0 6 3 1 5 -13 5 -14 0 -19 -2 -12 -5z"/>
<path d="M2516 951 c-3 -5 0 -14 8 -20 10 -9 15 -8 19 3 9 22 -15 37 -27 17z"/>
<path d="M2578 953 c7 -3 16 -2 19 1 4 3 -2 6 -13 5 -11 0 -14 -3 -6 -6z"/>
<path d="M2888 953 c6 -2 18 -2 25 0 6 3 1 5 -13 5 -14 0 -19 -2 -12 -5z"/>
<path d="M3098 953 c6 -2 18 -2 25 0 6 3 1 5 -13 5 -14 0 -19 -2 -12 -5z"/>
<path d="M3888 942 c11 -13 21 -16 29 -9 18 13 6 27 -23 27 -23 0 -23 -1 -6
-18z"/>
<path d="M4105 951 c-7 -12 12 -24 25 -16 11 7 4 25 -10 25 -5 0 -11 -4 -15
-9z"/>
<path d="M4315 951 c-7 -12 12 -24 25 -16 11 7 4 25 -10 25 -5 0 -11 -4 -15
-9z"/>
<path d="M4529 956 c-2 -2 -2 -33 0 -68 l5 -63 6 50 c4 28 9 56 11 64 4 13
-13 26 -22 17z"/>
<path d="M4588 953 c7 -3 16 -2 19 1 4 3 -2 6 -13 5 -11 0 -14 -3 -6 -6z"/>
<path d="M4630 950 c0 -5 9 -10 20 -10 11 0 20 5 20 10 0 6 -9 10 -20 10 -11
0 -20 -4 -20 -10z"/>
<path d="M4698 953 c6 -2 18 -2 25 0 6 3 1 5 -13 5 -14 0 -19 -2 -12 -5z"/>
<path d="M4747 954 c-3 -3 -3 -12 0 -20 4 -11 9 -12 19 -3 8 6 11 15 8 20 -6
10 -18 12 -27 3z"/>
<path d="M4798 953 c6 -2 18 -2 25 0 6 3 1 5 -13 5 -14 0 -19 -2 -12 -5z"/>
<path d="M4908 953 c7 -3 16 -2 19 1 4 3 -2 6 -13 5 -11 0 -14 -3 -6 -6z"/>
<path d="M4955 951 c-7 -12 12 -24 25 -16 11 7 4 25 -10 25 -5 0 -11 -4 -15
-9z"/>
<path d="M5008 953 c6 -2 18 -2 25 0 6 3 1 5 -13 5 -14 0 -19 -2 -12 -5z"/>
<path d="M5118 953 c7 -3 16 -2 19 1 4 3 -2 6 -13 5 -11 0 -14 -3 -6 -6z"/>
<path d="M5166 951 c-3 -5 1 -11 9 -15 15 -6 29 7 18 18 -9 9 -21 8 -27 -3z"/>
<path d="M5228 953 c7 -3 16 -2 19 1 4 3 -2 6 -13 5 -11 0 -14 -3 -6 -6z"/>
<path d="M5328 953 c6 -2 18 -2 25 0 6 3 1 5 -13 5 -14 0 -19 -2 -12 -5z"/>
<path d="M5375 950 c-3 -5 3 -10 15 -10 12 0 18 5 15 10 -3 6 -10 10 -15 10
-5 0 -12 -4 -15 -10z"/>
<path d="M5438 953 c7 -3 16 -2 19 1 4 3 -2 6 -13 5 -11 0 -14 -3 -6 -6z"/>
<path d="M5538 953 c6 -2 18 -2 25 0 6 3 1 5 -13 5 -14 0 -19 -2 -12 -5z"/>
<path d="M5648 953 c7 -3 16 -2 19 1 4 3 -2 6 -13 5 -11 0 -14 -3 -6 -6z"/>
<path d="M5748 953 c6 -2 18 -2 25 0 6 3 1 5 -13 5 -14 0 -19 -2 -12 -5z"/>
<path d="M5858 953 c7 -3 16 -2 19 1 4 3 -2 6 -13 5 -11 0 -14 -3 -6 -6z"/>
<path d="M5968 953 c6 -2 18 -2 25 0 6 3 1 5 -13 5 -14 0 -19 -2 -12 -5z"/>
<path d="M6498 953 c7 -3 16 -2 19 1 4 3 -2 6 -13 5 -11 0 -14 -3 -6 -6z"/>
<path d="M6598 953 c6 -2 18 -2 25 0 6 3 1 5 -13 5 -14 0 -19 -2 -12 -5z"/>
<path d="M6708 953 c7 -3 16 -2 19 1 4 3 -2 6 -13 5 -11 0 -14 -3 -6 -6z"/>
<path d="M6755 952 c-7 -7 7 -32 16 -27 4 3 11 -11 14 -32 11 -67 14 -69 12
-8 -1 55 1 60 24 66 17 5 12 6 -19 6 -24 -1 -45 -3 -47 -5z"/>
<path d="M6918 953 c7 -3 16 -2 19 1 4 3 -2 6 -13 5 -11 0 -14 -3 -6 -6z"/>
<path d="M6967 954 c-3 -3 -3 -12 0 -20 4 -11 9 -12 19 -3 8 6 11 15 8 20 -6
10 -18 12 -27 3z"/>
<path d="M7238 953 c6 -2 18 -2 25 0 6 3 1 5 -13 5 -14 0 -19 -2 -12 -5z"/>
<path d="M7392 941 c9 -15 16 -17 25 -9 16 13 7 28 -18 28 -16 0 -18 -3 -7
-19z"/>
<path d="M7607 954 c-3 -3 -3 -12 0 -20 4 -11 9 -12 19 -3 8 6 11 15 8 20 -6
10 -18 12 -27 3z"/>
<path d="M7768 953 c6 -2 18 -2 25 0 6 3 1 5 -13 5 -14 0 -19 -2 -12 -5z"/>
<path d="M7815 951 c-3 -5 -1 -12 5 -16 12 -7 30 2 30 16 0 12 -27 12 -35 0z"/>
<path d="M7985 952 c17 -2 36 -8 43 -14 8 -7 16 -7 25 0 6 6 26 12 42 14 17 2
-8 4 -55 4 -47 0 -71 -2 -55 -4z"/>
<path d="M8235 951 c-7 -12 12 -24 25 -16 11 7 4 25 -10 25 -5 0 -11 -4 -15
-9z"/>
<path d="M8665 951 c-7 -12 12 -24 25 -16 11 7 4 25 -10 25 -5 0 -11 -4 -15
-9z"/>
<path d="M8875 951 c-7 -12 12 -24 25 -16 11 7 4 25 -10 25 -5 0 -11 -4 -15
-9z"/>
<path d="M7543 890 c0 -36 2 -50 4 -32 2 17 2 47 0 65 -2 17 -4 3 -4 -33z"/>
<path d="M8293 890 c0 -36 2 -50 4 -32 2 17 2 47 0 65 -2 17 -4 3 -4 -33z"/>
<path d="M9042 860 c0 -19 2 -27 5 -17 2 9 2 25 0 35 -3 9 -5 1 -5 -18z"/>
<path d="M1479 714 c-7 -9 -15 -42 -17 -74 -4 -53 -2 -61 21 -84 31 -31 38
-32 67 -8 31 25 40 120 16 157 -19 29 -66 34 -87 9z m75 -42 c6 -26 6 -58 0
-80 -7 -30 -14 -37 -34 -37 -26 0 -37 23 -39 82 -2 52 15 85 42 81 17 -2 24
-12 31 -46z"/>
<path d="M2170 714 c-24 -14 -24 -15 -2 -11 21 5 22 3 22 -73 0 -66 -3 -79
-17 -83 -10 -3 5 -5 32 -5 28 0 42 2 33 5 -16 4 -18 17 -18 94 0 96 -4 101
-50 73z"/>
<path d="M2306 715 c-20 -20 -30 -76 -22 -120 13 -65 76 -81 106 -25 13 24 13
116 0 141 -13 23 -62 26 -84 4z m64 -14 c16 -31 13 -127 -6 -145 -19 -20 -19
-20 -38 0 -11 11 -16 35 -16 83 0 37 3 71 7 74 13 14 43 7 53 -12z"/>
<path d="M2913 723 c-7 -2 -13 -14 -13 -26 0 -20 1 -20 13 -3 8 11 23 17 38
14 18 -2 25 -10 27 -33 2 -24 -7 -41 -43 -82 l-47 -53 66 0 c37 0 66 4 66 10
0 6 -20 10 -45 10 -25 0 -45 3 -45 6 0 4 18 26 40 50 42 45 47 62 30 95 -10
18 -56 25 -87 12z"/>
<path d="M3056 708 c-19 -27 -21 -127 -3 -150 12 -17 27 -21 60 -19 41 3 61
135 27 176 -19 23 -66 19 -84 -7z m69 -11 c4 -13 5 -50 3 -82 -2 -50 -6 -60
-22 -63 -29 -6 -46 25 -46 84 0 68 7 84 36 84 16 0 25 -7 29 -23z"/>
<path d="M3663 713 c-3 -10 -8 -22 -10 -28 -3 -5 2 -2 10 8 21 25 61 19 65
-10 3 -17 -4 -26 -24 -35 l-28 -13 30 -5 c26 -5 29 -9 29 -40 0 -31 -3 -35
-30 -38 -19 -3 -33 2 -42 14 -12 17 -13 17 -13 -3 0 -48 103 -28 116 23 5 21
2 31 -12 43 -18 15 -19 18 -5 43 13 22 13 29 2 42 -19 22 -80 21 -88 -1z"/>
<path d="M3809 714 c-7 -9 -15 -42 -17 -74 -4 -53 -2 -61 21 -84 31 -31 38
-32 67 -8 31 25 40 120 16 157 -19 29 -66 34 -87 9z m75 -42 c6 -26 6 -58 0
-80 -7 -30 -14 -37 -34 -37 -26 0 -37 23 -39 82 -2 52 15 85 42 81 17 -2 24
-12 31 -46z"/>
<path d="M4469 723 c-1 -5 -1 -32 1 -60 l2 -53 -31 0 -31 0 26 41 c14 22 23
43 21 45 -3 3 -19 -19 -35 -48 l-31 -53 39 -3 c31 -2 40 -7 40 -22 0 -10 -8
-21 -17 -23 -10 -3 2 -5 27 -6 35 0 41 2 28 10 -22 12 -24 39 -3 39 8 0 15 5
15 10 0 6 -7 10 -15 10 -12 0 -15 13 -15 60 0 33 -4 60 -10 60 -5 0 -11 -3
-11 -7z"/>
<path d="M4559 714 c-7 -9 -15 -42 -17 -74 -4 -53 -2 -61 21 -84 31 -31 38
-32 67 -8 31 25 40 120 16 157 -19 29 -66 34 -87 9z m75 -42 c6 -26 6 -58 0
-80 -7 -30 -14 -37 -34 -37 -26 0 -37 23 -39 82 -2 52 15 85 42 81 17 -2 24
-12 31 -46z"/>
<path d="M5168 680 c-1 -28 -2 -50 0 -50 2 0 12 4 22 10 13 7 24 5 41 -9 20
-16 22 -23 14 -47 -13 -36 -61 -46 -82 -18 -7 10 -13 13 -13 7 0 -19 32 -45
47 -39 8 3 19 6 24 6 19 0 49 41 49 68 0 37 -17 52 -57 52 -29 0 -33 3 -33 25
0 23 4 25 45 25 25 0 45 5 45 10 0 6 -22 10 -49 10 l-49 0 -4 -50z"/>
<path d="M5316 715 c-20 -20 -30 -76 -22 -120 13 -65 76 -81 106 -25 13 24 13
116 0 141 -13 23 -62 26 -84 4z m64 -14 c16 -31 13 -127 -6 -145 -19 -20 -19
-20 -38 0 -11 11 -16 35 -16 83 0 37 3 71 7 74 13 14 43 7 53 -12z"/>
<path d="M5944 696 c-28 -28 -34 -41 -34 -78 0 -24 6 -52 13 -62 19 -26 67
-24 89 4 36 44 12 96 -40 88 -18 -2 -32 -1 -32 4 0 20 22 48 48 62 21 12 23
15 9 16 -11 0 -34 -15 -53 -34z m44 -68 c19 -19 15 -66 -7 -78 -15 -7 -23 -6
-35 6 -28 27 -15 84 19 84 6 0 16 -5 23 -12z"/>
<path d="M6066 708 c-19 -27 -21 -127 -3 -150 12 -17 27 -21 60 -19 41 3 61
135 27 176 -19 23 -66 19 -84 -7z m69 -11 c4 -13 5 -50 3 -82 -2 -50 -6 -60
-22 -63 -29 -6 -46 25 -46 84 0 68 7 84 36 84 16 0 25 -7 29 -23z"/>
<path d="M6660 703 c1 -24 2 -25 11 -10 7 11 22 17 49 17 22 0 40 -3 40 -8 0
-4 -20 -40 -45 -80 -49 -79 -51 -82 -32 -82 6 1 33 43 59 95 l48 95 -65 0
c-64 0 -65 0 -65 -27z"/>
<path d="M6819 714 c-7 -9 -15 -42 -17 -74 -4 -53 -2 -61 21 -84 31 -31 38
-32 67 -8 31 25 40 120 16 157 -19 29 -66 34 -87 9z m75 -42 c6 -26 6 -58 0
-80 -7 -30 -14 -37 -34 -37 -26 0 -37 23 -39 82 -2 52 15 85 42 81 17 -2 24
-12 31 -46z"/>
<path d="M7432 718 c-16 -16 -16 -65 1 -71 9 -3 7 -9 -5 -24 -10 -11 -18 -29
-18 -41 0 -27 40 -55 66 -46 53 19 72 73 34 96 -17 11 -18 14 -4 29 9 10 14
28 12 41 -2 18 -10 24 -38 26 -19 2 -41 -3 -48 -10z m66 -21 c6 -28 -16 -49
-39 -36 -19 10 -25 39 -12 53 13 13 48 1 51 -17z m-10 -83 c28 -19 28 -39 0
-58 -40 -29 -82 26 -46 62 15 15 19 15 46 -4z"/>
<path d="M7576 715 c-20 -20 -30 -76 -22 -120 13 -65 76 -81 106 -25 13 24 13
116 0 141 -13 23 -62 26 -84 4z m64 -14 c16 -31 13 -127 -6 -145 -19 -20 -19
-20 -38 0 -11 11 -16 35 -16 83 0 37 3 71 7 74 13 14 43 7 53 -12z"/>
<path d="M8177 712 c-44 -48 16 -135 61 -90 9 9 12 9 12 -3 0 -22 -29 -59 -54
-69 -18 -8 -18 -9 -2 -9 10 -1 33 14 52 33 28 28 34 41 34 78 0 31 -6 50 -18
61 -24 22 -65 21 -85 -1z m74 -13 c8 -16 8 -28 0 -45 -14 -32 -49 -31 -61 2
-20 51 35 90 61 43z"/>
<path d="M8326 715 c-20 -20 -30 -76 -22 -120 13 -65 76 -81 106 -25 13 24 13
116 0 141 -13 23 -62 26 -84 4z m64 -14 c16 -31 13 -127 -6 -145 -19 -20 -19
-20 -38 0 -11 11 -16 35 -16 83 0 37 3 71 7 74 13 14 43 7 53 -12z"/>
<path d="M8875 714 l-30 -14 28 5 27 5 0 -79 c0 -67 -3 -80 -17 -84 -10 -3 2
-5 27 -5 25 0 37 2 28 5 -16 4 -18 17 -18 94 0 49 -3 89 -7 89 -5 -1 -21 -7
-38 -16z"/>
<path d="M9006 708 c-19 -27 -21 -127 -3 -150 12 -17 27 -21 60 -19 41 3 61
135 27 176 -19 23 -66 19 -84 -7z m69 -11 c4 -13 5 -50 3 -82 -2 -50 -6 -60
-22 -63 -29 -6 -46 25 -46 84 0 68 7 84 36 84 16 0 25 -7 29 -23z"/>
<path d="M9146 708 c-19 -27 -21 -127 -3 -150 12 -17 27 -21 60 -19 41 3 61
135 27 176 -19 23 -66 19 -84 -7z m69 -11 c4 -13 5 -50 3 -82 -2 -50 -6 -60
-22 -63 -29 -6 -46 25 -46 84 0 68 7 84 36 84 16 0 25 -7 29 -23z"/>
<path d="M6330 240 c-28 -56 -49 -104 -46 -107 3 -3 28 41 56 97 28 56 49 104
46 107 -3 3 -28 -41 -56 -97z"/>
<path d="M4138 323 c8 -3 12 -31 12 -88 0 -71 -3 -84 -17 -88 -10 -3 2 -5 27
-6 35 0 41 2 28 10 -15 8 -18 24 -18 89 l0 80 29 0 c56 0 67 -51 15 -70 l-26
-10 35 -48 c20 -27 45 -48 58 -50 19 -3 17 2 -19 44 -41 48 -41 49 -20 60 27
15 38 43 26 67 -7 14 -22 17 -76 16 -37 0 -61 -3 -54 -6z"/>
<path d="M5930 314 c0 -9 5 -14 12 -12 18 6 21 28 4 28 -9 0 -16 -7 -16 -16z"/>
<path d="M6240 315 c-28 -34 12 -85 54 -69 33 13 28 84 -6 84 -6 0 -5 -7 2
-15 15 -19 5 -65 -15 -65 -20 0 -30 46 -15 65 7 8 8 15 2 15 -5 0 -15 -7 -22
-15z"/>
<path d="M4333 264 c-7 -3 -13 -13 -13 -22 0 -13 3 -12 14 4 12 15 19 17 32 8
29 -17 27 -30 -7 -40 -36 -10 -55 -34 -46 -58 7 -19 48 -21 65 -4 9 9 12 9 12
0 0 -7 10 -12 23 -12 14 0 18 3 10 8 -6 4 -13 32 -15 62 -3 53 -4 55 -33 57
-16 1 -36 0 -42 -3z m57 -74 c0 -26 -34 -44 -49 -26 -9 11 -8 18 4 30 22 22
45 20 45 -4z"/>
<path d="M4482 258 c-67 -33 -19 -146 50 -118 22 8 22 9 -4 9 -47 1 -75 63
-42 95 19 20 29 20 47 1 13 -12 16 -12 20 -1 11 27 -27 35 -71 14z"/>
<path d="M4595 250 c-23 -25 -24 -76 -2 -97 19 -19 72 -22 90 -4 9 9 4 10 -19
5 -22 -4 -36 -1 -47 11 -25 24 -21 35 12 35 41 0 61 9 61 29 0 42 -63 56 -95
21z m69 -6 c12 -31 -20 -46 -53 -25 -12 8 -12 12 -2 25 17 21 47 20 55 0z"/>
<path d="M4786 261 c-18 -7 -18 -8 -3 -14 25 -10 25 -161 0 -176 -14 -8 -10
-10 22 -10 22 0 34 3 28 6 -7 2 -13 20 -13 39 0 31 3 34 28 34 52 0 93 66 67
106 -17 26 -62 33 -83 12 -9 -9 -12 -9 -12 0 0 13 -6 14 -34 3z m107 -32 c13
-21 1 -65 -19 -73 -34 -13 -54 3 -54 43 0 21 3 41 7 45 12 12 55 2 66 -15z"/>
<path d="M4960 260 c-10 -6 -11 -10 -2 -10 8 0 12 -17 12 -49 0 -30 -5 -51
-12 -54 -7 -3 5 -5 27 -5 22 0 32 2 23 5 -13 3 -18 15 -18 43 0 37 20 67 39
56 5 -3 11 1 15 9 7 18 -24 21 -42 3 -9 -9 -12 -9 -12 0 0 14 -10 15 -30 2z"/>
<path d="M5077 252 c-20 -22 -22 -85 -4 -100 6 -5 23 -13 37 -16 l25 -7 -22
18 c-42 34 -38 113 5 113 28 0 42 -21 42 -60 0 -20 -5 -41 -12 -48 -9 -9 -9
-12 -1 -12 18 0 43 41 43 71 0 53 -77 81 -113 41z"/>
<path d="M5238 259 c-21 -12 -24 -49 -6 -67 9 -9 9 -15 1 -23 -6 -6 -9 -17 -7
-24 3 -7 1 -16 -5 -20 -18 -10 -13 -43 8 -55 33 -17 71 -11 96 15 14 13 25 28
25 34 0 20 -33 41 -66 41 -42 0 -44 12 -4 27 17 6 34 23 40 37 5 14 15 27 22
27 16 2 -40 16 -67 18 -11 0 -28 -4 -37 -10z m57 -20 c10 -30 -18 -57 -39 -39
-16 13 -21 42 -9 53 14 14 42 6 48 -14z m9 -105 c9 -3 16 -14 16 -24 0 -41
-62 -53 -84 -17 -18 29 27 57 68 41z"/>
<path d="M5370 260 c-10 -6 -11 -10 -2 -10 8 0 12 -17 12 -49 0 -30 -5 -51
-12 -54 -7 -3 5 -6 27 -6 25 0 35 2 27 8 -9 5 -12 24 -10 52 3 39 6 44 26 42
14 -2 22 3 22 12 0 18 -21 20 -38 3 -9 -9 -12 -9 -12 0 0 14 -19 15 -40 2z"/>
<path d="M5492 254 c-26 -18 -30 -69 -8 -99 14 -20 70 -25 87 -8 6 6 0 8 -19
5 -23 -3 -33 2 -46 20 -16 23 -16 23 30 30 58 8 61 12 40 43 -19 29 -51 32
-84 9z m63 -19 c0 -22 -31 -33 -47 -17 -17 17 -1 44 24 40 15 -2 23 -10 23
-23z"/>
<path d="M5622 258 c-6 -6 -12 -20 -12 -30 0 -17 10 -23 67 -43 7 -2 10 -11 7
-20 -9 -21 -61 -20 -67 3 -4 13 -5 12 -6 -4 -2 -39 69 -42 89 -4 14 27 3 46
-33 57 -39 11 -50 43 -15 43 13 0 30 -6 37 -12 11 -11 13 -10 9 2 -6 19 -59
25 -76 8z"/>
<path d="M5736 254 c-9 -8 -16 -19 -16 -24 0 -13 42 -40 62 -40 11 0 18 -8 18
-20 0 -26 -54 -28 -69 -2 -9 15 -10 15 -11 -4 0 -27 35 -38 70 -21 38 19 34
59 -7 71 -18 6 -35 16 -38 23 -7 19 24 29 46 14 15 -9 19 -8 19 4 0 20 -54 20
-74 -1z"/>
<path d="M5920 260 c-10 -6 -11 -10 -2 -10 8 0 12 -17 12 -49 0 -30 -5 -51
-12 -54 -7 -3 5 -5 27 -5 22 0 34 2 28 5 -9 3 -13 26 -13 64 0 60 -8 70 -40
49z"/>
<path d="M6000 260 c-10 -6 -11 -10 -2 -10 8 0 12 -17 12 -49 0 -30 -5 -51
-12 -54 -7 -3 5 -6 27 -6 25 0 35 2 27 8 -9 5 -12 24 -10 52 3 39 6 44 28 44
23 0 25 -4 28 -52 3 -50 4 -53 30 -52 15 0 21 3 15 6 -8 2 -13 22 -13 44 0 22
-5 49 -10 60 -12 21 -50 25 -68 7 -9 -9 -12 -9 -12 0 0 14 -19 15 -40 2z"/>
<path d="M6372 218 c-27 -27 -7 -78 29 -78 23 0 49 38 41 59 -11 31 -48 41
-70 19z m48 -34 c0 -28 -3 -35 -17 -32 -31 6 -29 68 2 68 11 0 15 -10 15 -36z"/>
</g>
</svg>
