<?xml version="1.0" standalone="no"?>
<!DOCTYPE svg PUBLIC "-//W3C//DTD SVG 20010904//EN"
 "http://www.w3.org/TR/2001/REC-SVG-20010904/DTD/svg10.dtd">
<svg version="1.0" xmlns="http://www.w3.org/2000/svg"
 width="932.000000pt" height="380.000000pt" viewBox="0 0 932.000000 380.000000"
 preserveAspectRatio="xMidYMid meet">

<g transform="translate(0.000000,380.000000) scale(0.100000,-0.100000)"
fill="#000000" stroke="none">
<path d="M900 3704 c-23 -14 -23 -14 -2 -9 21 6 22 4 22 -74 0 -67 -3 -80 -17
-84 -10 -3 5 -5 32 -5 28 0 42 2 33 5 -16 4 -18 17 -18 94 0 96 -4 101 -50 73z"/>
<path d="M1029 3704 c-7 -9 -15 -42 -17 -74 -4 -53 -2 -61 21 -84 31 -31 38
-32 67 -8 31 25 40 120 16 157 -19 29 -66 34 -87 9z m75 -42 c6 -26 6 -58 0
-80 -7 -30 -14 -37 -34 -37 -26 0 -37 23 -39 82 -2 52 15 85 42 81 17 -2 24
-12 31 -46z"/>
<path d="M1176 3705 c-20 -20 -30 -76 -22 -120 13 -65 76 -81 106 -25 13 24
13 116 0 141 -13 23 -62 26 -84 4z m64 -14 c16 -31 13 -127 -6 -145 -8 -9 -17
-16 -19 -16 -2 0 -11 7 -19 16 -11 11 -16 35 -16 83 0 37 3 71 7 74 13 14 43
7 53 -12z"/>
<path d="M1438 3623 l62 -4 0 -264 0 -265 -57 -2 -58 -1 55 -6 55 -6 3 -267 2
-267 -62 -4 -63 -3 63 -2 62 -2 -2 -267 -3 -268 -60 -6 -60 -6 63 -1 62 -2 0
-265 0 -265 -57 -2 -58 -1 55 -6 55 -6 3 -267 2 -267 -62 -4 -63 -3 62 -2 62
-2 4 -57 3 -58 2 58 2 57 370 0 369 0 4 -62 3 -63 2 63 2 62 370 0 369 0 4
-57 3 -58 2 58 2 57 369 0 369 0 10 -57 9 -58 2 53 c1 33 5 51 11 47 6 -3 10
-1 10 4 0 8 113 11 360 11 l359 0 4 -57 3 -58 2 58 2 57 370 0 369 0 4 -57 3
-58 2 58 2 57 370 0 369 0 4 -57 3 -58 2 57 2 57 622 1 c443 0 625 -3 635 -11
9 -9 13 -8 13 0 0 15 87 14 94 -1 5 -10 7 -10 12 0 9 18 81 15 92 -4 8 -15 10
-14 18 2 6 14 10 3 14 -41 l7 -60 1 58 c2 56 3 57 31 57 16 0 32 -6 35 -12 5
-10 7 -10 12 0 9 18 81 15 92 -4 8 -15 10 -15 15 0 8 20 82 22 91 4 5 -10 7
-10 12 0 9 18 81 15 92 -4 8 -15 10 -15 15 0 8 20 82 22 91 4 5 -10 7 -10 12
0 9 18 81 15 92 -4 8 -15 10 -15 15 0 8 20 82 22 91 4 5 -10 7 -10 12 0 3 6
12 12 19 12 10 0 15 -17 18 -57 l3 -58 2 58 c2 54 3 57 27 57 14 0 25 -5 25
-11 0 -8 4 -9 13 0 20 16 304 14 311 -2 5 -9 7 -9 12 1 9 18 81 15 92 -4 8
-15 10 -15 15 0 8 20 82 22 91 4 5 -10 7 -10 12 0 8 18 83 16 90 -3 6 -14 8
-13 19 1 7 10 19 15 28 11 13 -5 17 4 22 46 3 29 5 646 3 1372 l-3 1320 -3830
1 c-2106 0 -3802 -1 -3767 -3z m7582 -678 l0 -675 -3755 0 -3755 0 0 675 0
675 3755 0 3755 0 0 -675z m-3759 -722 l2 -28 4 28 4 27 1875 0 1874 0 0 -674
0 -674 -282 0 c-207 -1 -285 3 -290 11 -6 9 -8 9 -8 1 0 -9 -263 -12 -1025
-13 l-1025 -1 0 45 c0 25 -4 45 -10 45 -5 0 -10 -20 -10 -45 0 -52 -20 -61
-37 -17 l-11 27 -1 -27 c-1 -26 -4 -28 -46 -28 -38 0 -45 3 -45 20 0 11 -4 20
-10 20 -5 0 -10 -9 -10 -20 0 -20 -6 -20 -1207 -20 -869 0 -1210 3 -1220 11
-9 8 -13 8 -13 0 0 -6 -7 -11 -15 -11 -10 0 -15 10 -15 30 0 17 -4 30 -10 30
-5 0 -10 -13 -10 -30 l0 -30 -1105 0 -1105 0 0 675 0 675 1875 0 1875 0 1 -27z"/>
<path d="M3612 3488 c2 -35 8 -63 13 -63 6 0 11 28 13 63 2 51 0 62 -13 62
-13 0 -15 -11 -13 -62z"/>
<path d="M7110 3485 c0 -37 4 -65 10 -65 6 0 10 28 10 65 0 37 -4 65 -10 65
-6 0 -10 -28 -10 -65z"/>
<path d="M6050 3430 c0 -47 3 -60 15 -60 12 0 15 13 15 60 0 47 -3 60 -15 60
-12 0 -15 -13 -15 -60z"/>
<path d="M8173 3428 c8 -13 27 -56 43 -95 16 -40 32 -73 35 -73 3 0 24 43 46
95 36 84 38 95 22 95 -11 0 -16 -5 -13 -13 2 -7 -3 -31 -12 -53 -9 -21 -21
-50 -26 -64 -9 -23 -11 -20 -37 45 -18 47 -24 72 -17 77 6 4 -4 8 -22 8 -31 0
-32 -1 -19 -22z"/>
<path d="M8378 3443 c8 -3 12 -31 12 -88 0 -71 -3 -84 -17 -88 -10 -3 17 -5
60 -6 73 -1 77 0 77 21 0 20 -1 21 -13 4 -9 -12 -23 -17 -47 -14 -32 3 -35 6
-38 41 -3 36 -3 37 32 37 19 0 37 -6 39 -12 3 -7 6 2 6 20 1 30 0 32 -15 18
-30 -31 -64 -15 -64 30 0 33 1 34 40 34 27 0 42 -6 49 -17 9 -16 10 -16 11 5
0 21 -4 22 -72 21 -40 0 -67 -3 -60 -6z"/>
<path d="M8548 3443 c8 -3 12 -31 12 -88 0 -71 -3 -84 -17 -88 -10 -3 2 -5 27
-6 35 0 41 2 28 10 -15 8 -18 24 -18 89 l0 80 29 0 c56 0 67 -51 15 -70 l-26
-10 35 -48 c20 -27 45 -48 58 -50 19 -3 17 2 -19 44 -41 48 -41 49 -20 60 27
15 38 43 26 67 -7 14 -22 17 -76 16 -37 0 -61 -3 -54 -6z"/>
<path d="M8213 3095 c-39 -17 -53 -42 -53 -93 0 -45 34 -87 77 -95 36 -7 94 3
98 17 18 60 16 66 -17 66 -29 0 -30 -1 -14 -13 30 -22 16 -52 -26 -55 -75 -6
-118 89 -69 149 25 31 96 33 117 4 14 -18 14 -18 14 2 0 35 -66 45 -127 18z"/>
<path d="M8461 3088 c-25 -65 -73 -163 -84 -170 -7 -4 3 -8 23 -8 23 0 30 3
21 9 -8 5 -11 16 -6 30 5 17 14 21 50 21 36 0 45 -4 50 -21 5 -14 2 -25 -6
-30 -9 -6 2 -9 30 -9 38 0 42 2 28 13 -9 6 -32 50 -52 97 -20 46 -38 86 -40
89 -3 2 -9 -7 -14 -21z m27 -68 c11 -29 10 -30 -19 -30 -32 0 -35 7 -18 44 14
30 23 27 37 -14z"/>
<path d="M8622 3098 c-24 -12 -38 -48 -29 -73 4 -8 19 -17 34 -20 50 -11 73
-24 73 -43 0 -41 -57 -57 -92 -25 -17 15 -18 15 -18 -5 0 -23 16 -28 70 -23
76 7 86 111 10 111 -16 0 -36 7 -45 16 -14 14 -14 19 -2 38 20 29 42 31 66 7
20 -20 21 -20 21 -2 0 31 -44 40 -88 19z"/>
<path d="M8182 2744 c-24 -17 -30 -65 -9 -81 6 -6 28 -13 49 -17 40 -7 53 -27
38 -57 -17 -31 -79 -24 -93 11 -3 9 -6 4 -6 -11 -1 -21 5 -28 26 -32 41 -8 91
17 99 47 9 37 -1 54 -33 61 -72 16 -90 37 -57 69 21 22 39 20 64 -6 20 -22 20
-22 20 -1 0 35 -58 45 -98 17z"/>
<path d="M8365 2670 c-21 -50 -45 -95 -54 -100 -12 -7 -5 -9 24 -9 22 1 32 3
23 6 -21 5 -21 8 -8 34 16 28 85 27 101 -2 9 -17 8 -23 -2 -30 -9 -6 0 -9 26
-9 23 0 35 4 28 8 -7 5 -29 46 -49 93 -20 46 -40 88 -44 92 -4 4 -24 -33 -45
-83z m48 23 c2 -10 8 -26 12 -35 6 -15 2 -18 -25 -18 -27 0 -31 3 -25 18 4 9
10 25 12 35 3 9 9 17 13 17 4 0 10 -8 13 -17z"/>
<path d="M8538 2743 c8 -3 12 -31 12 -88 0 -71 -3 -84 -17 -88 -10 -3 2 -5 27
-5 25 0 39 2 33 5 -9 3 -13 31 -13 88 0 57 4 85 13 88 6 3 -6 5 -28 5 -22 0
-34 -2 -27 -5z"/>
<path d="M5598 2533 c17 -2 47 -2 65 0 17 2 3 4 -33 4 -36 0 -50 -2 -32 -4z"/>
<path d="M5262 2050 c0 -19 2 -27 5 -17 2 9 2 25 0 35 -3 9 -5 1 -5 -18z"/>
<path d="M2253 1400 c0 -36 2 -50 4 -32 2 17 2 47 0 65 -2 17 -4 3 -4 -33z"/>
<path d="M6846 1047 c3 -10 9 -15 12 -12 3 3 0 11 -7 18 -10 9 -11 8 -5 -6z"/>
<path d="M4460 1000 c0 -27 5 -50 10 -50 6 0 10 23 10 50 0 28 -4 50 -10 50
-5 0 -10 -22 -10 -50z"/>
<path d="M4510 1020 c0 -11 4 -20 9 -20 5 0 7 9 4 20 -3 11 -7 20 -9 20 -2 0
-4 -9 -4 -20z"/>
<path d="M6740 1008 c0 -9 5 -20 10 -23 13 -8 13 5 0 25 -8 13 -10 13 -10 -2z"/>
<path d="M6635 998 c-4 -10 -4 -26 0 -35 8 -17 8 -17 12 0 3 9 3 25 0 35 -4
16 -4 16 -12 0z"/>
<path d="M4410 970 c0 -11 4 -20 9 -20 5 0 7 9 4 20 -3 11 -7 20 -9 20 -2 0
-4 -9 -4 -20z"/>
<path d="M4301 954 c0 -11 3 -14 6 -6 3 7 2 16 -1 19 -3 4 -6 -2 -5 -13z"/>
<path d="M464 3399 c-16 -5 -41 -20 -55 -35 l-24 -26 40 21 c51 27 125 27 185
1 l45 -20 -28 25 c-26 23 -86 46 -117 44 -8 0 -29 -5 -46 -10z"/>
<path d="M145 3329 c-27 -22 -32 -48 -13 -67 9 -9 10 -15 2 -20 -6 -4 -8 -18
-4 -32 5 -21 7 -22 13 -7 5 14 19 17 85 17 47 0 83 -5 90 -12 9 -9 12 -4 11
23 0 18 -3 28 -6 22 -2 -7 -20 -13 -39 -13 -25 0 -32 4 -28 14 9 24 -23 73
-55 84 -25 9 -34 7 -56 -9z m85 -23 c6 -8 10 -25 8 -38 -6 -44 -98 -33 -98 11
0 38 64 57 90 27z"/>
<path d="M401 3295 c0 -19 2 -25 8 -17 5 9 29 12 79 10 l72 -3 -80 -63 c-66
-52 -80 -68 -79 -90 0 -15 3 -21 6 -14 3 8 31 12 88 12 57 0 85 -4 88 -12 3
-7 6 3 6 22 0 28 -2 32 -10 18 -8 -14 -24 -18 -75 -18 -36 0 -64 4 -62 9 2 5
35 35 73 66 103 84 103 85 -9 85 -66 0 -96 4 -99 13 -3 6 -6 -1 -6 -18z"/>
<path d="M136 3158 c-21 -30 -20 -50 5 -82 38 -48 119 -22 119 39 0 59 -91 90
-124 43z m95 -8 c22 -13 25 -43 5 -59 -21 -18 -87 -10 -100 12 -9 15 -7 22 13
38 26 21 53 24 82 9z"/>
<path d="M1032 3168 c-16 -16 -16 -65 1 -71 9 -3 7 -9 -5 -24 -10 -11 -18 -29
-18 -41 0 -27 40 -55 66 -46 53 19 72 73 34 96 -17 11 -18 14 -4 29 9 10 14
28 12 41 -2 18 -10 24 -38 26 -19 2 -41 -3 -48 -10z m66 -21 c6 -28 -16 -49
-39 -36 -19 10 -25 39 -12 53 13 13 48 1 51 -17z m-10 -83 c28 -19 28 -39 0
-58 -40 -29 -82 26 -46 62 15 15 19 15 46 -4z"/>
<path d="M1176 3165 c-20 -20 -30 -76 -22 -120 13 -65 76 -81 106 -25 13 24
13 116 0 141 -13 23 -62 26 -84 4z m64 -14 c16 -31 13 -127 -6 -145 -8 -9 -17
-16 -19 -16 -2 0 -11 7 -19 16 -11 11 -16 35 -16 83 0 37 3 71 7 74 13 14 43
7 53 -12z"/>
<path d="M401 3055 c0 -19 2 -25 8 -17 5 9 29 12 79 10 l72 -3 -80 -63 c-66
-52 -80 -68 -79 -90 0 -15 3 -21 6 -14 3 8 31 12 88 12 57 0 85 -4 88 -12 3
-7 6 3 6 22 0 28 -2 32 -10 18 -8 -14 -24 -18 -75 -18 -36 0 -64 4 -62 9 2 5
35 35 73 66 103 84 103 85 -9 85 -66 0 -96 4 -99 13 -3 6 -6 -1 -6 -18z"/>
<path d="M130 3021 c0 -14 -8 -21 -27 -23 -25 -4 -26 -5 -8 -12 11 -4 28 -12
38 -17 11 -6 17 -6 17 1 0 5 23 10 50 10 51 0 71 15 55 41 -6 8 -10 7 -17 -5
-6 -10 -22 -16 -48 -16 -33 0 -40 3 -40 20 0 11 -4 20 -10 20 -5 0 -10 -9 -10
-19z"/>
<path d="M192 2927 c-6 -6 -14 -25 -17 -40 -5 -18 -13 -27 -24 -25 -22 5 -25
32 -5 53 17 16 17 17 -2 13 -39 -7 -24 -88 17 -88 15 0 25 11 36 40 17 43 24
48 43 25 15 -18 5 -52 -18 -59 -9 -2 -6 -4 8 -3 19 2 26 8 28 30 6 47 -41 85
-66 54z"/>
<path d="M401 2788 c0 -40 3 -67 6 -60 3 8 31 12 88 12 57 0 85 -4 88 -12 3
-7 5 7 5 32 0 25 -2 37 -5 28 -3 -13 -15 -18 -44 -18 -36 0 -39 2 -39 28 0 15
5 33 11 39 7 7 3 9 -15 6 -21 -4 -23 -8 -14 -23 18 -29 3 -50 -37 -50 -33 0
-35 2 -35 35 0 22 6 38 18 44 15 9 15 10 -5 11 -22 0 -23 -4 -22 -72z"/>
<path d="M130 2741 c0 -14 -8 -21 -27 -23 -25 -4 -26 -5 -8 -12 11 -4 28 -12
38 -17 11 -6 17 -6 17 1 0 5 23 10 50 10 51 0 71 15 55 41 -6 8 -10 7 -17 -5
-6 -10 -22 -16 -48 -16 -33 0 -40 3 -40 20 0 11 -4 20 -10 20 -5 0 -10 -9 -10
-19z"/>
<path d="M401 2628 c0 -40 3 -67 6 -60 3 8 31 12 88 12 57 0 85 -4 88 -12 3
-7 5 7 5 32 0 25 -2 37 -5 28 -3 -13 -15 -18 -44 -18 -36 0 -39 2 -39 28 0 15
5 33 11 39 7 7 3 9 -15 6 -21 -4 -23 -8 -14 -23 18 -29 3 -50 -37 -50 -33 0
-35 2 -35 35 0 22 6 38 18 44 15 9 15 10 -5 11 -22 0 -23 -4 -22 -72z"/>
<path d="M184 2641 c-56 -6 -60 -8 -53 -26 4 -11 8 -14 8 -7 1 10 15 13 56 10
47 -3 55 0 55 15 0 9 -1 16 -2 15 -2 -1 -30 -4 -64 -7z"/>
<path d="M62 2629 c2 -6 8 -10 13 -10 5 0 11 4 13 10 2 6 -4 11 -13 11 -9 0
-15 -5 -13 -11z"/>
<path d="M1058 2607 c-34 -29 -48 -58 -48 -99 0 -64 48 -93 93 -57 30 23 36
69 12 89 -8 7 -28 10 -45 8 -18 -3 -30 0 -30 6 1 15 31 51 55 64 14 8 15 11 5
12 -8 0 -27 -10 -42 -23z m36 -83 c9 -8 16 -24 16 -34 0 -18 -25 -50 -39 -50
-28 0 -45 83 -18 93 20 9 25 8 41 -9z"/>
<path d="M1176 2615 c-20 -20 -30 -76 -22 -120 13 -65 76 -81 106 -25 13 24
13 116 0 141 -13 23 -62 26 -84 4z m64 -14 c16 -31 13 -127 -6 -145 -8 -9 -17
-16 -19 -16 -2 0 -11 7 -19 16 -11 11 -16 35 -16 83 0 37 3 71 7 74 13 14 43
7 53 -12z"/>
<path d="M145 2559 c-27 -22 -32 -48 -13 -67 9 -9 10 -15 2 -20 -6 -4 -8 -18
-4 -32 5 -21 7 -22 13 -7 5 14 19 17 85 17 47 0 83 -5 90 -12 9 -9 12 -4 11
23 0 18 -3 28 -6 22 -2 -7 -20 -13 -39 -13 -25 0 -32 4 -28 14 9 24 -23 73
-55 84 -25 9 -34 7 -56 -9z m85 -23 c6 -8 10 -25 8 -38 -6 -44 -98 -33 -98 11
0 38 64 57 90 27z"/>
<path d="M399 2526 c40 -48 133 -60 201 -26 21 11 41 24 45 30 9 14 -2 12 -30
-6 -13 -8 -47 -18 -77 -21 -51 -5 -61 -2 -143 36 -5 2 -4 -4 4 -13z"/>
<path d="M528 2373 c-23 -6 -34 -49 -18 -68 26 -32 86 -8 78 31 -4 21 -38 42
-60 37z m52 -44 c0 -17 -5 -20 -32 -17 -22 2 -34 9 -36 21 -3 14 4 17 32 17
30 0 36 -4 36 -21z"/>
<path d="M147 2313 c-84 -3 -98 -6 -93 -19 3 -9 6 -21 6 -27 0 -6 6 -3 13 7
16 22 53 17 49 -7 -5 -27 26 -76 52 -83 54 -13 98 27 78 71 -6 13 -8 32 -5 44
3 12 4 20 2 19 -2 -1 -48 -4 -102 -5z m77 -36 c24 -17 17 -48 -13 -63 -31 -16
-65 -3 -69 25 -7 45 42 67 82 38z"/>
<path d="M390 2315 c0 -8 202 -107 207 -101 5 4 -189 106 -202 106 -3 0 -5 -2
-5 -5z"/>
<path d="M412 2238 c-17 -17 -15 -33 3 -18 19 15 65 5 65 -15 0 -20 -46 -30
-65 -15 -18 15 -20 -1 -3 -18 25 -25 78 -2 78 33 0 35 -53 58 -78 33z"/>
<path d="M141 2151 c-24 -24 -25 -31 -9 -66 20 -45 92 -48 117 -4 9 15 11 36
7 52 -9 39 -23 33 -18 -8 4 -29 0 -36 -19 -44 -23 -8 -24 -6 -29 37 -6 52 -20
62 -49 33z m39 -41 c0 -23 -5 -30 -19 -30 -23 0 -35 28 -20 46 20 24 39 16 39
-16z"/>
<path d="M581 2073 c-1 -9 -18 -13 -49 -13 -26 0 -53 -5 -60 -12 -15 -15 -16
-55 -1 -64 8 -5 8 -8 0 -14 -8 -4 -9 -14 -2 -31 5 -13 10 -18 10 -11 1 8 18
12 50 12 30 0 51 -5 54 -12 3 -7 6 5 6 27 0 25 -2 35 -8 27 -5 -9 -24 -12 -52
-10 -40 3 -44 6 -47 31 -3 26 -2 27 48 27 51 0 69 13 57 42 -4 10 -6 10 -6 1z"/>
<path d="M1079 2073 c-1 -5 -1 -32 1 -60 l2 -53 -31 0 -31 0 26 41 c14 22 23
43 21 45 -3 3 -19 -19 -35 -48 l-31 -53 39 -3 c31 -2 40 -7 40 -22 0 -10 -8
-21 -17 -23 -10 -3 2 -5 27 -6 35 0 41 2 28 10 -22 12 -24 39 -3 39 8 0 15 5
15 10 0 6 -7 10 -15 10 -12 0 -15 13 -15 60 0 33 -4 60 -10 60 -5 0 -11 -3
-11 -7z"/>
<path d="M1176 2065 c-20 -20 -30 -76 -22 -120 13 -65 76 -81 106 -25 13 24
13 116 0 141 -13 23 -62 26 -84 4z m64 -14 c16 -31 13 -127 -6 -145 -8 -9 -17
-16 -19 -16 -2 0 -11 7 -19 16 -11 11 -16 35 -16 83 0 37 3 71 7 74 13 14 43
7 53 -12z"/>
<path d="M130 2021 c0 -14 -8 -21 -27 -23 -25 -4 -26 -5 -8 -12 11 -4 28 -12
38 -17 11 -6 17 -6 17 1 0 5 23 10 50 10 51 0 71 15 55 41 -6 8 -10 7 -17 -5
-6 -10 -22 -16 -48 -16 -33 0 -40 3 -40 20 0 11 -4 20 -10 20 -5 0 -10 -9 -10
-19z"/>
<path d="M124 1914 c-16 -63 84 -114 120 -62 18 25 21 64 7 73 -5 3 -11 -9
-13 -27 -2 -27 -9 -34 -35 -42 -23 -6 -37 -5 -48 4 -18 15 -20 57 -3 62 8 3 6
7 -5 11 -12 5 -18 0 -23 -19z"/>
<path d="M580 1900 c0 -6 -27 -10 -60 -10 -61 0 -67 -4 -50 -30 6 -10 10 -11
10 -2 0 8 17 12 49 12 30 0 51 -5 54 -12 3 -7 6 2 6 20 1 17 -1 32 -4 32 -3 0
-5 -4 -5 -10z"/>
<path d="M402 1879 c2 -6 8 -10 13 -10 5 0 11 4 13 10 2 6 -4 11 -13 11 -9 0
-15 -5 -13 -11z"/>
<path d="M184 1791 c-56 -6 -60 -8 -53 -26 4 -11 8 -14 8 -7 1 10 15 13 56 10
47 -3 55 0 55 15 0 9 -1 16 -2 15 -2 -1 -30 -4 -64 -7z"/>
<path d="M62 1779 c2 -6 8 -10 13 -10 5 0 11 4 13 10 2 6 -4 11 -13 11 -9 0
-15 -5 -13 -11z"/>
<path d="M560 1715 c0 -8 7 -15 15 -15 8 0 15 7 15 15 0 8 -7 15 -15 15 -8 0
-15 -7 -15 -15z"/>
<path d="M147 1713 c-84 -3 -98 -6 -93 -19 3 -9 6 -21 6 -27 0 -6 6 -3 13 7
16 22 53 17 49 -7 -5 -27 26 -76 52 -83 54 -13 98 27 78 71 -6 13 -8 32 -5 44
3 12 4 20 2 19 -2 -1 -48 -4 -102 -5z m77 -36 c24 -17 17 -48 -13 -63 -31 -16
-65 -3 -69 25 -7 45 42 67 82 38z"/>
<path d="M472 1648 c-15 -15 -15 -43 -2 -69 10 -17 7 -19 -35 -19 -32 0 -45
-4 -45 -14 0 -8 5 -18 10 -21 6 -3 10 -1 10 4 0 7 33 11 90 11 l90 0 0 38 c0
27 -7 45 -23 60 -25 24 -76 29 -95 10z m92 -24 c30 -30 15 -64 -28 -64 -36 0
-56 15 -56 42 0 34 57 50 84 22z"/>
<path d="M141 1551 c-24 -24 -25 -31 -9 -66 20 -45 92 -48 117 -4 9 15 11 36
7 52 -9 39 -23 33 -18 -8 4 -29 0 -36 -19 -44 -23 -8 -24 -6 -29 37 -6 52 -20
62 -49 33z m39 -41 c0 -23 -5 -30 -19 -30 -23 0 -35 28 -20 46 20 24 39 16 39
-16z"/>
<path d="M1022 1528 c-7 -7 -12 -19 -12 -27 1 -14 3 -13 14 2 18 23 53 22 66
-3 13 -25 -4 -62 -49 -104 -17 -17 -31 -33 -31 -38 0 -4 27 -8 60 -8 33 0 60
4 60 10 0 6 -21 10 -46 10 l-45 0 40 48 c59 70 53 122 -14 122 -17 0 -36 -5
-43 -12z"/>
<path d="M1176 1525 c-20 -20 -30 -76 -22 -120 13 -65 76 -81 106 -25 13 24
13 116 0 141 -13 23 -62 26 -84 4z m64 -14 c16 -31 13 -127 -6 -145 -8 -9 -17
-16 -19 -16 -2 0 -11 7 -19 16 -11 11 -16 35 -16 83 0 37 3 71 7 74 13 14 43
7 53 -12z"/>
<path d="M477 1492 c-38 -42 -6 -112 51 -112 35 0 58 17 67 50 l7 25 -22 -23
c-30 -32 -103 -29 -108 5 -6 42 70 70 102 37 9 -8 16 -11 16 -6 0 18 -37 42
-67 42 -16 0 -37 -8 -46 -18z"/>
<path d="M120 1422 c0 -4 6 -14 12 -20 9 -9 10 -15 2 -20 -7 -4 -8 -15 -3 -27
4 -11 8 -14 8 -7 1 10 15 13 56 10 53 -3 55 -2 54 22 0 14 -3 19 -6 13 -5 -15
-61 -17 -82 -4 -8 5 -11 16 -8 25 5 11 1 16 -13 16 -11 0 -20 -4 -20 -8z"/>
<path d="M460 1356 c0 -8 5 -18 11 -22 8 -5 8 -9 -1 -14 -9 -6 -10 -12 -1 -26
6 -11 11 -13 11 -6 0 8 17 12 49 12 30 0 51 -5 54 -12 3 -7 5 5 5 27 0 22 -2
32 -5 23 -3 -13 -15 -18 -43 -18 -38 0 -67 20 -55 40 3 5 -1 10 -9 10 -9 0
-16 -6 -16 -14z"/>
<path d="M72 1308 c-7 -7 -12 -40 -12 -77 0 -40 4 -61 9 -53 6 10 31 13 95 10
l86 -3 -1 30 c0 17 -3 24 -6 18 -3 -9 -31 -13 -89 -13 -80 0 -84 1 -84 23 0
35 15 49 46 45 20 -2 30 -10 35 -28 l7 -25 1 26 c2 46 -57 77 -87 47z"/>
<path d="M493 1249 c-27 -10 -40 -55 -25 -80 7 -12 8 -19 1 -21 -6 -2 -7 -12
-1 -27 7 -20 10 -21 15 -8 10 25 162 25 176 0 8 -14 10 -10 10 22 0 22 -3 34
-6 28 -2 -7 -20 -13 -39 -13 -30 0 -34 3 -34 28 -1 50 -52 88 -97 71z m71 -35
c34 -34 13 -67 -40 -62 -32 2 -40 7 -42 26 -7 46 48 71 82 36z"/>
<path d="M1176 975 c-20 -20 -30 -76 -22 -120 13 -65 76 -81 106 -25 13 24 13
116 0 141 -13 23 -62 26 -84 4z m64 -14 c16 -31 13 -127 -6 -145 -8 -9 -17
-16 -19 -16 -2 0 -11 7 -19 16 -11 11 -16 35 -16 83 0 37 3 71 7 74 13 14 43
7 53 -12z"/>
<path d="M6773 825 c0 -27 2 -38 4 -22 2 15 2 37 0 50 -2 12 -4 0 -4 -28z"/>
<path d="M9022 810 c0 -19 2 -27 5 -17 2 9 2 25 0 35 -3 9 -5 1 -5 -18z"/>
<path d="M1459 654 c-7 -9 -15 -42 -17 -74 -4 -53 -2 -61 21 -84 31 -31 38
-32 67 -8 31 25 40 120 16 157 -19 29 -66 34 -87 9z m75 -42 c6 -26 6 -58 0
-80 -7 -30 -14 -37 -34 -37 -26 0 -37 23 -39 82 -2 52 15 85 42 81 17 -2 24
-12 31 -46z"/>
<path d="M2150 654 c-24 -14 -24 -15 -2 -11 21 5 22 3 22 -73 0 -66 -3 -79
-17 -83 -10 -3 5 -5 32 -5 28 0 42 2 33 5 -16 4 -18 17 -18 94 0 96 -4 101
-50 73z"/>
<path d="M2286 655 c-20 -20 -30 -76 -22 -120 13 -65 76 -81 106 -25 13 24 13
116 0 141 -13 23 -62 26 -84 4z m64 -14 c16 -31 13 -127 -6 -145 -19 -20 -19
-20 -38 0 -11 11 -16 35 -16 83 0 37 3 71 7 74 13 14 43 7 53 -12z"/>
<path d="M2893 663 c-7 -2 -13 -14 -13 -26 0 -20 1 -20 13 -3 8 11 23 17 38
14 18 -2 25 -10 27 -33 2 -24 -7 -41 -43 -82 l-47 -53 66 0 c37 0 66 4 66 10
0 6 -20 10 -45 10 -25 0 -45 3 -45 6 0 4 18 26 40 50 42 45 47 62 30 95 -10
18 -56 25 -87 12z"/>
<path d="M3036 648 c-19 -27 -21 -127 -3 -150 12 -17 27 -21 60 -19 41 3 61
135 27 176 -19 23 -66 19 -84 -7z m69 -11 c4 -13 5 -50 3 -82 -2 -50 -6 -60
-22 -63 -29 -6 -46 25 -46 84 0 68 7 84 36 84 16 0 25 -7 29 -23z"/>
<path d="M3643 653 c-3 -10 -8 -22 -10 -28 -3 -5 2 -2 10 8 21 25 61 19 65
-10 3 -17 -4 -26 -24 -35 l-28 -13 30 -5 c26 -5 29 -9 29 -40 0 -31 -3 -35
-30 -38 -19 -3 -33 2 -42 14 -12 17 -13 17 -13 -3 0 -48 103 -28 116 23 5 21
2 31 -12 43 -18 15 -19 18 -5 43 13 22 13 29 2 42 -19 22 -80 21 -88 -1z"/>
<path d="M3789 654 c-7 -9 -15 -42 -17 -74 -4 -53 -2 -61 21 -84 31 -31 38
-32 67 -8 31 25 40 120 16 157 -19 29 -66 34 -87 9z m75 -42 c6 -26 6 -58 0
-80 -7 -30 -14 -37 -34 -37 -26 0 -37 23 -39 82 -2 52 15 85 42 81 17 -2 24
-12 31 -46z"/>
<path d="M4449 663 c-1 -5 -1 -32 1 -60 l2 -53 -31 0 -31 0 26 41 c14 22 23
43 21 45 -3 3 -19 -19 -35 -48 l-31 -53 39 -3 c31 -2 40 -7 40 -22 0 -10 -8
-21 -17 -23 -10 -3 2 -5 27 -6 35 0 41 2 28 10 -22 12 -24 39 -3 39 8 0 15 5
15 10 0 6 -7 10 -15 10 -12 0 -15 13 -15 60 0 33 -4 60 -10 60 -5 0 -11 -3
-11 -7z"/>
<path d="M4539 654 c-7 -9 -15 -42 -17 -74 -4 -53 -2 -61 21 -84 31 -31 38
-32 67 -8 31 25 40 120 16 157 -19 29 -66 34 -87 9z m75 -42 c6 -26 6 -58 0
-80 -7 -30 -14 -37 -34 -37 -26 0 -37 23 -39 82 -2 52 15 85 42 81 17 -2 24
-12 31 -46z"/>
<path d="M5148 620 c-1 -28 -2 -50 0 -50 2 0 12 4 22 10 13 7 24 5 41 -9 20
-16 22 -23 14 -47 -13 -36 -61 -46 -82 -18 -7 10 -13 13 -13 7 0 -19 32 -45
47 -39 8 3 19 6 24 6 19 0 49 41 49 68 0 37 -17 52 -57 52 -29 0 -33 3 -33 25
0 23 4 25 45 25 25 0 45 5 45 10 0 6 -22 10 -49 10 l-49 0 -4 -50z"/>
<path d="M5296 655 c-20 -20 -30 -76 -22 -120 13 -65 76 -81 106 -25 13 24 13
116 0 141 -13 23 -62 26 -84 4z m64 -14 c16 -31 13 -127 -6 -145 -19 -20 -19
-20 -38 0 -11 11 -16 35 -16 83 0 37 3 71 7 74 13 14 43 7 53 -12z"/>
<path d="M5924 636 c-28 -28 -34 -41 -34 -78 0 -24 6 -52 13 -62 19 -26 67
-24 89 4 36 44 12 96 -40 88 -18 -2 -32 -1 -32 4 0 20 22 48 48 62 21 12 23
15 9 16 -11 0 -34 -15 -53 -34z m44 -68 c19 -19 15 -66 -7 -78 -15 -7 -23 -6
-35 6 -28 27 -15 84 19 84 6 0 16 -5 23 -12z"/>
<path d="M6046 648 c-19 -27 -21 -127 -3 -150 12 -17 27 -21 60 -19 41 3 61
135 27 176 -19 23 -66 19 -84 -7z m69 -11 c4 -13 5 -50 3 -82 -2 -50 -6 -60
-22 -63 -29 -6 -46 25 -46 84 0 68 7 84 36 84 16 0 25 -7 29 -23z"/>
<path d="M6640 643 c1 -24 2 -25 11 -10 7 11 22 17 49 17 22 0 40 -3 40 -8 0
-4 -20 -40 -45 -80 -49 -79 -51 -82 -32 -82 6 1 33 43 59 95 l48 95 -65 0
c-64 0 -65 0 -65 -27z"/>
<path d="M6799 654 c-7 -9 -15 -42 -17 -74 -4 -53 -2 -61 21 -84 31 -31 38
-32 67 -8 31 25 40 120 16 157 -19 29 -66 34 -87 9z m75 -42 c6 -26 6 -58 0
-80 -7 -30 -14 -37 -34 -37 -26 0 -37 23 -39 82 -2 52 15 85 42 81 17 -2 24
-12 31 -46z"/>
<path d="M7412 658 c-16 -16 -16 -65 1 -71 9 -3 7 -9 -5 -24 -10 -11 -18 -29
-18 -41 0 -27 40 -55 66 -46 53 19 72 73 34 96 -17 11 -18 14 -4 29 9 10 14
28 12 41 -2 18 -10 24 -38 26 -19 2 -41 -3 -48 -10z m66 -21 c6 -28 -16 -49
-39 -36 -19 10 -25 39 -12 53 13 13 48 1 51 -17z m-10 -83 c28 -19 28 -39 0
-58 -40 -29 -82 26 -46 62 15 15 19 15 46 -4z"/>
<path d="M7556 655 c-20 -20 -30 -76 -22 -120 13 -65 76 -81 106 -25 13 24 13
116 0 141 -13 23 -62 26 -84 4z m64 -14 c16 -31 13 -127 -6 -145 -19 -20 -19
-20 -38 0 -11 11 -16 35 -16 83 0 37 3 71 7 74 13 14 43 7 53 -12z"/>
<path d="M8157 652 c-44 -48 16 -135 61 -90 9 9 12 9 12 -3 0 -22 -29 -59 -54
-69 -18 -8 -18 -9 -2 -9 10 -1 33 14 52 33 28 28 34 41 34 78 0 31 -6 50 -18
61 -24 22 -65 21 -85 -1z m74 -13 c8 -16 8 -28 0 -45 -14 -32 -49 -31 -61 2
-20 51 35 90 61 43z"/>
<path d="M8306 655 c-20 -20 -30 -76 -22 -120 13 -65 76 -81 106 -25 13 24 13
116 0 141 -13 23 -62 26 -84 4z m64 -14 c16 -31 13 -127 -6 -145 -19 -20 -19
-20 -38 0 -11 11 -16 35 -16 83 0 37 3 71 7 74 13 14 43 7 53 -12z"/>
<path d="M8855 654 l-30 -14 28 5 27 5 0 -79 c0 -67 -3 -80 -17 -84 -10 -3 2
-5 27 -5 25 0 37 2 28 5 -16 4 -18 17 -18 94 0 49 -3 89 -7 89 -5 -1 -21 -7
-38 -16z"/>
<path d="M8986 648 c-19 -27 -21 -127 -3 -150 12 -17 27 -21 60 -19 41 3 61
135 27 176 -19 23 -66 19 -84 -7z m69 -11 c4 -13 5 -50 3 -82 -2 -50 -6 -60
-22 -63 -29 -6 -46 25 -46 84 0 68 7 84 36 84 16 0 25 -7 29 -23z"/>
<path d="M9126 648 c-19 -27 -21 -127 -3 -150 12 -17 27 -21 60 -19 41 3 61
135 27 176 -19 23 -66 19 -84 -7z m69 -11 c4 -13 5 -50 3 -82 -2 -50 -6 -60
-22 -63 -29 -6 -46 25 -46 84 0 68 7 84 36 84 16 0 25 -7 29 -23z"/>
<path d="M6310 190 c-28 -56 -49 -104 -46 -107 3 -3 28 41 56 97 28 56 49 104
46 107 -3 3 -28 -41 -56 -97z"/>
<path d="M4118 273 c8 -3 12 -31 12 -88 0 -71 -3 -84 -17 -88 -10 -3 2 -5 27
-6 35 0 41 2 28 10 -15 8 -18 24 -18 89 l0 80 29 0 c56 0 67 -51 15 -70 l-26
-10 35 -48 c20 -27 45 -48 58 -50 19 -3 17 2 -19 44 -41 48 -41 49 -20 60 27
15 38 43 26 67 -7 14 -22 17 -76 16 -37 0 -61 -3 -54 -6z"/>
<path d="M5910 264 c0 -17 22 -14 28 4 2 7 -3 12 -12 12 -9 0 -16 -7 -16 -16z"/>
<path d="M6220 265 c-28 -34 12 -85 54 -69 33 13 28 84 -6 84 -6 0 -5 -7 2
-15 15 -19 5 -65 -15 -65 -20 0 -30 46 -15 65 7 8 8 15 2 15 -5 0 -15 -7 -22
-15z"/>
<path d="M4313 214 c-7 -3 -13 -13 -13 -22 0 -13 3 -12 14 4 12 15 19 17 32 8
29 -17 27 -30 -7 -40 -36 -10 -55 -34 -46 -58 7 -19 48 -21 65 -4 9 9 12 9 12
0 0 -7 10 -12 23 -12 14 0 18 3 10 8 -6 4 -13 32 -15 62 -3 53 -4 55 -33 57
-16 1 -36 0 -42 -3z m57 -74 c0 -26 -34 -44 -49 -26 -9 11 -8 18 4 30 22 22
45 20 45 -4z"/>
<path d="M4462 208 c-67 -33 -19 -146 50 -118 22 8 22 9 -4 9 -47 1 -75 63
-42 95 19 20 29 20 47 1 13 -12 16 -12 20 -1 11 27 -27 35 -71 14z"/>
<path d="M4575 200 c-23 -25 -24 -76 -2 -97 19 -19 72 -22 90 -4 9 9 4 10 -19
5 -22 -4 -36 -1 -47 11 -25 24 -21 35 12 35 41 0 61 9 61 29 0 42 -63 56 -95
21z m69 -6 c12 -31 -20 -46 -53 -25 -12 8 -12 12 -2 25 17 21 47 20 55 0z"/>
<path d="M4766 211 c-18 -7 -18 -8 -3 -14 25 -10 25 -161 0 -176 -14 -8 -10
-10 22 -10 22 0 34 3 28 6 -7 2 -13 20 -13 39 0 31 3 34 28 34 52 0 93 66 67
106 -17 26 -62 33 -83 12 -9 -9 -12 -9 -12 0 0 13 -6 14 -34 3z m107 -32 c13
-21 1 -65 -19 -73 -34 -13 -54 3 -54 43 0 21 3 41 7 45 12 12 55 2 66 -15z"/>
<path d="M4940 210 c-10 -6 -11 -10 -2 -10 8 0 12 -17 12 -49 0 -30 -5 -51
-12 -54 -7 -3 5 -5 27 -5 22 0 32 2 23 5 -13 3 -18 15 -18 43 0 37 20 67 39
56 5 -3 11 1 15 9 7 18 -24 21 -42 3 -9 -9 -12 -9 -12 0 0 14 -10 15 -30 2z"/>
<path d="M5057 202 c-20 -22 -22 -85 -4 -100 6 -5 23 -13 37 -16 l25 -7 -22
18 c-42 34 -38 113 5 113 28 0 42 -21 42 -60 0 -20 -5 -41 -12 -48 -9 -9 -9
-12 -1 -12 18 0 43 41 43 71 0 53 -77 81 -113 41z"/>
<path d="M5218 209 c-21 -12 -24 -49 -6 -67 9 -9 9 -15 1 -23 -6 -6 -9 -17 -7
-24 3 -7 1 -16 -5 -20 -18 -10 -13 -43 8 -55 33 -17 71 -11 96 15 14 13 25 28
25 34 0 20 -33 41 -66 41 -42 0 -44 12 -4 27 17 6 34 23 40 37 5 14 15 27 22
27 16 2 -40 16 -67 18 -11 0 -28 -4 -37 -10z m57 -20 c10 -30 -18 -57 -39 -39
-16 13 -21 42 -9 53 14 14 42 6 48 -14z m9 -105 c9 -3 16 -14 16 -24 0 -41
-62 -53 -84 -17 -18 29 27 57 68 41z"/>
<path d="M5350 210 c-10 -6 -11 -10 -2 -10 8 0 12 -17 12 -49 0 -30 -5 -51
-12 -54 -7 -3 5 -6 27 -6 25 0 35 2 27 8 -9 5 -12 24 -10 52 3 39 6 44 26 42
14 -2 22 3 22 12 0 18 -21 20 -38 3 -9 -9 -12 -9 -12 0 0 14 -19 15 -40 2z"/>
<path d="M5472 204 c-26 -18 -30 -69 -8 -99 14 -20 70 -25 87 -8 6 6 0 8 -19
5 -23 -3 -33 2 -46 20 -16 23 -16 23 30 30 58 8 61 12 40 43 -19 29 -51 32
-84 9z m63 -19 c0 -22 -31 -33 -47 -17 -17 17 -1 44 24 40 15 -2 23 -10 23
-23z"/>
<path d="M5602 208 c-6 -6 -12 -20 -12 -30 0 -17 10 -23 67 -43 7 -2 10 -11 7
-20 -9 -21 -61 -20 -67 3 -4 13 -5 12 -6 -4 -2 -39 69 -42 89 -4 14 27 3 46
-33 57 -39 11 -50 43 -15 43 13 0 30 -6 37 -12 11 -11 13 -10 9 2 -6 19 -59
25 -76 8z"/>
<path d="M5716 204 c-9 -8 -16 -19 -16 -24 0 -13 42 -40 62 -40 11 0 18 -8 18
-20 0 -26 -54 -28 -69 -2 -9 15 -10 15 -11 -4 0 -27 35 -38 70 -21 38 19 34
59 -7 71 -18 6 -35 16 -38 23 -7 19 24 29 46 14 15 -9 19 -8 19 4 0 20 -54 20
-74 -1z"/>
<path d="M5900 210 c-10 -6 -11 -10 -2 -10 8 0 12 -17 12 -49 0 -30 -5 -51
-12 -54 -7 -3 5 -5 27 -5 22 0 34 2 28 5 -9 3 -13 26 -13 64 0 60 -8 70 -40
49z"/>
<path d="M5980 210 c-10 -6 -11 -10 -2 -10 8 0 12 -17 12 -49 0 -30 -5 -51
-12 -54 -7 -3 5 -6 27 -6 25 0 35 2 27 8 -9 5 -12 24 -10 52 3 39 6 44 28 44
23 0 25 -4 28 -52 3 -50 4 -53 30 -52 15 0 21 3 15 6 -8 2 -13 22 -13 44 0 22
-5 49 -10 60 -12 21 -50 25 -68 7 -9 -9 -12 -9 -12 0 0 14 -19 15 -40 2z"/>
<path d="M6352 168 c-27 -27 -7 -78 29 -78 23 0 49 38 41 59 -11 31 -48 41
-70 19z m48 -34 c0 -28 -3 -35 -17 -32 -31 6 -29 68 2 68 11 0 15 -10 15 -36z"/>
</g>
</svg>
